<?xml version="1.0" encoding="utf-8"?>
<!-- Generator: Adobe Illustrator 25.2.3, SVG Export Plug-In . SVG Version: 6.00 Build 0)  -->
<svg version="1.1" id="Layer_1" xmlns="http://www.w3.org/2000/svg" xmlns:xlink="http://www.w3.org/1999/xlink" x="0px" y="0px"
	 viewBox="0 0 300 251" style="enable-background:new 0 0 300 251;" xml:space="preserve">
<style type="text/css">
	.st0{opacity:0;fill:#FFFFFF;}
	.st1{opacity:7.812500e-03;fill:#FEFEFE;}
	.st2{opacity:0.0156;fill:#FDFDFD;}
	.st3{opacity:0.0234;fill:#FCFCFC;}
	.st4{opacity:0.0312;fill:#FBFBFB;}
	.st5{opacity:0.0391;fill:#FAFAFA;}
	.st6{opacity:0.0469;fill:#F9F9F9;}
	.st7{opacity:0.0547;fill:#F8F8F8;}
	.st8{opacity:0.0625;fill:#F7F7F7;}
	.st9{opacity:0.0703;fill:#F6F6F6;}
	.st10{opacity:0.0781;fill:#F5F5F5;}
	.st11{opacity:0.0859;fill:#F4F4F4;}
	.st12{opacity:0.0938;fill:#F3F3F3;}
	.st13{opacity:0.1016;fill:#F2F2F2;}
	.st14{opacity:0.1094;fill:#F1F1F1;}
	.st15{opacity:0.1172;fill:#F0F0F0;}
	.st16{opacity:0.125;fill:#EFEFEF;}
	.st17{opacity:0.1328;fill:#EEEEEE;}
	.st18{opacity:0.1406;fill:#EDEDED;}
	.st19{opacity:0.1484;fill:#ECECEC;}
	.st20{opacity:0.1562;fill:#EBEBEB;}
	.st21{opacity:0.1641;fill:#EAEAEA;}
	.st22{opacity:0.1719;fill:#E9E9E9;}
	.st23{opacity:0.1797;fill:#E8E8E8;}
	.st24{opacity:0.1875;fill:#E7E7E7;}
	.st25{opacity:0.1953;fill:#E6E6E6;}
	.st26{opacity:0.2031;fill:#E5E5E5;}
	.st27{opacity:0.2109;fill:#E4E4E4;}
	.st28{opacity:0.2188;fill:#E3E3E3;}
	.st29{opacity:0.2266;fill:#E2E2E2;}
	.st30{opacity:0.2344;fill:#E1E1E1;}
	.st31{opacity:0.2422;fill:#E0E0E0;}
	.st32{opacity:0.25;fill:#DFDFDF;}
	.st33{opacity:0.2578;fill:#DEDEDE;}
	.st34{opacity:0.2656;fill:#DDDDDD;}
	.st35{opacity:0.2734;fill:#DCDCDC;}
	.st36{opacity:0.2812;fill:#DBDBDB;}
	.st37{opacity:0.2891;fill:#DADADA;}
	.st38{opacity:0.2969;fill:#D9D9D9;}
	.st39{opacity:0.3047;fill:#D8D8D8;}
	.st40{opacity:0.3125;fill:#D7D7D7;}
	.st41{opacity:0.3203;fill:#D6D6D6;}
	.st42{opacity:0.3281;fill:#D5D5D5;}
	.st43{opacity:0.3359;fill:#D4D4D4;}
	.st44{opacity:0.3438;fill:#D3D3D3;}
	.st45{opacity:0.3516;fill:#D2D2D2;}
	.st46{opacity:0.3594;fill:#D1D1D1;}
	.st47{opacity:0.3672;fill:#D0D0D0;}
	.st48{opacity:0.375;fill:#CFCFCF;}
	.st49{opacity:0.3828;fill:#CECECE;}
	.st50{opacity:0.3906;fill:#CDCDCD;}
	.st51{opacity:0.3984;fill:#CCCCCC;}
	.st52{opacity:0.4062;fill:#CBCBCB;}
	.st53{opacity:0.4141;fill:#CACACA;}
	.st54{opacity:0.4219;fill:#C9C9C9;}
	.st55{opacity:0.4297;fill:#C8C8C8;}
	.st56{opacity:0.4375;fill:#C7C7C7;}
	.st57{opacity:0.4453;fill:#C6C6C6;}
	.st58{opacity:0.4531;fill:#C5C5C5;}
	.st59{opacity:0.4609;fill:#C4C4C4;}
	.st60{opacity:0.4688;fill:#C3C3C3;}
	.st61{opacity:0.4766;fill:#C2C2C2;}
	.st62{opacity:0.4844;fill:#C1C1C1;}
	.st63{opacity:0.4922;fill:#C0C0C0;}
	.st64{opacity:0.5;fill:#C0C0C0;}
	.st65{opacity:0.5078;fill:#BFBFBF;}
	.st66{opacity:0.5156;fill:#BEBEBE;}
	.st67{opacity:0.5234;fill:#BDBDBD;}
	.st68{opacity:0.5312;fill:#BCBCBC;}
	.st69{opacity:0.5391;fill:#BBBBBB;}
	.st70{opacity:0.5469;fill:#BABABA;}
	.st71{opacity:0.5547;fill:#B9B9B9;}
	.st72{opacity:0.5625;fill:#B8B8B8;}
	.st73{opacity:0.5703;fill:#B7B7B7;}
	.st74{opacity:0.5781;fill:#B6B6B6;}
	.st75{opacity:0.5859;fill:#B5B5B5;}
	.st76{opacity:0.5938;fill:#B4B4B4;}
	.st77{opacity:0.6016;fill:#B3B3B3;}
	.st78{opacity:0.6094;fill:#B2B2B2;}
	.st79{opacity:0.6172;fill:#B1B1B1;}
	.st80{opacity:0.625;fill:#B0B0B0;}
	.st81{opacity:0.6328;fill:#AFAFAF;}
	.st82{opacity:0.6406;fill:#AEAEAE;}
	.st83{opacity:0.6484;fill:#ADADAD;}
	.st84{opacity:0.6562;fill:#ACACAC;}
	.st85{opacity:0.6641;fill:#ABABAB;}
	.st86{opacity:0.6719;fill:#AAAAAA;}
	.st87{opacity:0.6797;fill:#A9A9A9;}
	.st88{opacity:0.6875;fill:#A8A8A8;}
	.st89{opacity:0.6953;fill:#A7A7A7;}
	.st90{opacity:0.7031;fill:#A6A6A6;}
	.st91{opacity:0.7109;fill:#A5A5A5;}
	.st92{opacity:0.7188;fill:#A4A4A4;}
	.st93{opacity:0.7266;fill:#A3A3A3;}
	.st94{opacity:0.7344;fill:#A2A2A2;}
	.st95{opacity:0.7422;fill:#A1A1A1;}
	.st96{opacity:0.75;fill:#A0A0A0;}
	.st97{opacity:0.7578;fill:#9F9F9F;}
	.st98{opacity:0.7656;fill:#9E9E9E;}
	.st99{opacity:0.7734;fill:#9D9D9D;}
	.st100{opacity:0.7812;fill:#9C9C9C;}
	.st101{opacity:0.7891;fill:#9B9B9B;}
	.st102{opacity:0.7969;fill:#9A9A9A;}
	.st103{opacity:0.8047;fill:#999999;}
	.st104{opacity:0.8125;fill:#989898;}
	.st105{opacity:0.8203;fill:#979797;}
	.st106{opacity:0.8281;fill:#969696;}
	.st107{opacity:0.8359;fill:#959595;}
	.st108{opacity:0.8438;fill:#949494;}
	.st109{opacity:0.8516;fill:#939393;}
	.st110{opacity:0.8594;fill:#929292;}
	.st111{opacity:0.8672;fill:#919191;}
	.st112{opacity:0.875;fill:#909090;}
	.st113{opacity:0.8828;fill:#8F8F8F;}
	.st114{opacity:0.8906;fill:#8E8E8E;}
	.st115{opacity:0.8984;fill:#8D8D8D;}
	.st116{opacity:0.9062;fill:#8C8C8C;}
	.st117{opacity:0.9141;fill:#8B8B8B;}
	.st118{opacity:0.9219;fill:#8A8A8A;}
	.st119{opacity:0.9297;fill:#898989;}
	.st120{opacity:0.9375;fill:#888888;}
	.st121{opacity:0.9453;fill:#878787;}
	.st122{opacity:0.9531;fill:#868686;}
	.st123{opacity:0.9609;fill:#858585;}
	.st124{opacity:0.9688;fill:#848484;}
	.st125{opacity:0.9766;fill:#838383;}
	.st126{opacity:0.9844;fill:#828282;}
	.st127{opacity:0.9922;fill:#818181;}
	.st128{fill:#808080;}
	.st129{clip-path:url(#SVGID_2_);fill:#575756;}
	.st130{fill:#33A9AC;}
	.st131{fill:#FFFFFF;}
	.st132{clip-path:url(#SVGID_4_);fill:#575756;}
	.st133{clip-path:url(#SVGID_6_);fill:#575756;}
	.st134{fill:#FFA646;}
	.st135{clip-path:url(#SVGID_8_);fill:#575756;}
	.st136{clip-path:url(#SVGID_10_);fill:#575756;}
	.st137{fill:#F86041;}
	.st138{clip-path:url(#SVGID_12_);fill:#575756;}
	.st139{fill:#982062;}
	.st140{clip-path:url(#SVGID_14_);fill:#575756;}
	.st141{fill:#343779;}
	.st142{clip-path:url(#SVGID_16_);fill:#575756;}
	.st143{fill:#0B75E0;}
	.st144{opacity:0.5;fill:#FFFFFF;}
	.st145{clip-path:url(#SVGID_18_);fill:#FFFFFF;}
	.st146{clip-path:url(#SVGID_20_);fill:#575756;}
	.st147{clip-path:url(#SVGID_22_);fill:#575756;}
	.st148{clip-path:url(#SVGID_24_);fill:#575756;}
	.st149{fill:#9EBB5F;}
	.st150{clip-path:url(#SVGID_26_);fill:#575756;}
	.st151{fill:#D8AB4C;}
	.st152{clip-path:url(#SVGID_28_);fill:#575756;}
	.st153{fill:#93278F;}
</style>
<g>
	<circle class="st0" cx="122.57" cy="121.84" r="53.33"/>
	<circle class="st1" cx="122.78" cy="121.63" r="53.33"/>
	<circle class="st2" cx="122.99" cy="121.42" r="53.33"/>
	<circle class="st3" cx="123.2" cy="121.21" r="53.33"/>
	<circle class="st4" cx="123.41" cy="121" r="53.33"/>
	<circle class="st5" cx="123.62" cy="120.79" r="53.33"/>
	<circle class="st6" cx="123.83" cy="120.58" r="53.33"/>
	<circle class="st7" cx="124.04" cy="120.37" r="53.33"/>
	<circle class="st8" cx="124.25" cy="120.16" r="53.33"/>
	<circle class="st9" cx="124.46" cy="119.95" r="53.33"/>
	<circle class="st10" cx="124.66" cy="119.74" r="53.33"/>
	<circle class="st11" cx="124.87" cy="119.53" r="53.33"/>
	<circle class="st12" cx="125.08" cy="119.32" r="53.33"/>
	<circle class="st13" cx="125.29" cy="119.11" r="53.33"/>
	<circle class="st14" cx="125.5" cy="118.91" r="53.33"/>
	<circle class="st15" cx="125.71" cy="118.7" r="53.33"/>
	<circle class="st16" cx="125.92" cy="118.49" r="53.33"/>
	<circle class="st17" cx="126.13" cy="118.28" r="53.33"/>
	<circle class="st18" cx="126.34" cy="118.07" r="53.33"/>
	<circle class="st19" cx="126.55" cy="117.86" r="53.33"/>
	<circle class="st20" cx="126.76" cy="117.65" r="53.33"/>
	<circle class="st21" cx="126.97" cy="117.44" r="53.33"/>
	<circle class="st22" cx="127.18" cy="117.23" r="53.33"/>
	<circle class="st23" cx="127.39" cy="117.02" r="53.33"/>
	<circle class="st24" cx="127.6" cy="116.81" r="53.33"/>
	<circle class="st25" cx="127.81" cy="116.6" r="53.33"/>
	<circle class="st26" cx="128.02" cy="116.39" r="53.33"/>
	<circle class="st27" cx="128.22" cy="116.18" r="53.33"/>
	<circle class="st28" cx="128.43" cy="115.97" r="53.33"/>
	<circle class="st29" cx="128.64" cy="115.76" r="53.33"/>
	<circle class="st30" cx="128.85" cy="115.56" r="53.33"/>
	<circle class="st31" cx="129.06" cy="115.35" r="53.33"/>
	<circle class="st32" cx="129.27" cy="115.14" r="53.33"/>
	<circle class="st33" cx="129.48" cy="114.93" r="53.33"/>
	<circle class="st34" cx="129.69" cy="114.72" r="53.33"/>
	<circle class="st35" cx="129.9" cy="114.51" r="53.33"/>
	<circle class="st36" cx="130.11" cy="114.3" r="53.33"/>
	<circle class="st37" cx="130.32" cy="114.09" r="53.33"/>
	<circle class="st38" cx="130.53" cy="113.88" r="53.33"/>
	<circle class="st39" cx="130.74" cy="113.67" r="53.33"/>
	
		<ellipse transform="matrix(0.7071 -0.7071 0.7071 0.7071 -41.8762 125.8252)" class="st40" cx="130.95" cy="113.46" rx="53.33" ry="53.33"/>
	
		<ellipse transform="matrix(0.7071 -0.7071 0.7071 0.7071 -41.6669 125.9119)" class="st41" cx="131.16" cy="113.25" rx="53.33" ry="53.33"/>
	
		<ellipse transform="matrix(0.7071 -0.7071 0.7071 0.7071 -41.4575 125.9986)" class="st42" cx="131.37" cy="113.04" rx="53.33" ry="53.33"/>
	
		<ellipse transform="matrix(0.7071 -0.7071 0.7071 0.7071 -41.2481 126.0854)" class="st43" cx="131.57" cy="112.83" rx="53.33" ry="53.33"/>
	
		<ellipse transform="matrix(0.7071 -0.7071 0.7071 0.7071 -41.0387 126.1721)" class="st44" cx="131.78" cy="112.62" rx="53.33" ry="53.33"/>
	
		<ellipse transform="matrix(0.7071 -0.7071 0.7071 0.7071 -40.8293 126.2588)" class="st45" cx="131.99" cy="112.41" rx="53.33" ry="53.33"/>
	
		<ellipse transform="matrix(0.7071 -0.7071 0.7071 0.7071 -40.62 126.3455)" class="st46" cx="132.2" cy="112.21" rx="53.33" ry="53.33"/>
	
		<ellipse transform="matrix(0.7071 -0.7071 0.7071 0.7071 -40.4106 126.4323)" class="st47" cx="132.41" cy="112" rx="53.33" ry="53.33"/>
	
		<ellipse transform="matrix(0.7071 -0.7071 0.7071 0.7071 -40.2012 126.519)" class="st48" cx="132.62" cy="111.79" rx="53.33" ry="53.33"/>
	
		<ellipse transform="matrix(0.7071 -0.7071 0.7071 0.7071 -39.9918 126.6057)" class="st49" cx="132.83" cy="111.58" rx="53.33" ry="53.33"/>
	
		<ellipse transform="matrix(0.7071 -0.7071 0.7071 0.7071 -39.7825 126.6924)" class="st50" cx="133.04" cy="111.37" rx="53.33" ry="53.33"/>
	
		<ellipse transform="matrix(0.7071 -0.7071 0.7071 0.7071 -39.5731 126.7792)" class="st51" cx="133.25" cy="111.16" rx="53.33" ry="53.33"/>
	
		<ellipse transform="matrix(0.7071 -0.7071 0.7071 0.7071 -39.3637 126.8659)" class="st52" cx="133.46" cy="110.95" rx="53.33" ry="53.33"/>
	
		<ellipse transform="matrix(0.7071 -0.7071 0.7071 0.7071 -39.1543 126.9526)" class="st53" cx="133.67" cy="110.74" rx="53.33" ry="53.33"/>
	
		<ellipse transform="matrix(0.7071 -0.7071 0.7071 0.7071 -38.9449 127.0393)" class="st54" cx="133.88" cy="110.53" rx="53.33" ry="53.33"/>
	
		<ellipse transform="matrix(0.7071 -0.7071 0.7071 0.7071 -38.7356 127.1261)" class="st55" cx="134.09" cy="110.32" rx="53.33" ry="53.33"/>
	
		<ellipse transform="matrix(0.7071 -0.7071 0.7071 0.7071 -38.5262 127.2128)" class="st56" cx="134.3" cy="110.11" rx="53.33" ry="53.33"/>
	
		<ellipse transform="matrix(0.7071 -0.7071 0.7071 0.7071 -38.3168 127.2995)" class="st57" cx="134.51" cy="109.9" rx="53.33" ry="53.33"/>
	
		<ellipse transform="matrix(0.7071 -0.7071 0.7071 0.7071 -38.1074 127.3862)" class="st58" cx="134.72" cy="109.69" rx="53.33" ry="53.33"/>
	
		<ellipse transform="matrix(0.7071 -0.7071 0.7071 0.7071 -37.8981 127.473)" class="st59" cx="134.92" cy="109.48" rx="53.33" ry="53.33"/>
	
		<ellipse transform="matrix(0.7071 -0.7071 0.7071 0.7071 -37.6887 127.5597)" class="st60" cx="135.13" cy="109.27" rx="53.33" ry="53.33"/>
	
		<ellipse transform="matrix(0.7071 -0.7071 0.7071 0.7071 -37.4793 127.6464)" class="st61" cx="135.34" cy="109.06" rx="53.33" ry="53.33"/>
	
		<ellipse transform="matrix(0.7071 -0.7071 0.7071 0.7071 -37.2699 127.7332)" class="st62" cx="135.55" cy="108.86" rx="53.33" ry="53.33"/>
	
		<ellipse transform="matrix(0.7071 -0.7071 0.7071 0.7071 -37.0605 127.8199)" class="st63" cx="135.76" cy="108.65" rx="53.33" ry="53.33"/>
	
		<ellipse transform="matrix(0.7071 -0.7071 0.7071 0.7071 -36.8512 127.9066)" class="st64" cx="135.97" cy="108.44" rx="53.33" ry="53.33"/>
	
		<ellipse transform="matrix(0.7071 -0.7071 0.7071 0.7071 -36.6418 127.9933)" class="st65" cx="136.18" cy="108.23" rx="53.33" ry="53.33"/>
	
		<ellipse transform="matrix(0.7071 -0.7071 0.7071 0.7071 -36.4324 128.0801)" class="st66" cx="136.39" cy="108.02" rx="53.33" ry="53.33"/>
	
		<ellipse transform="matrix(0.7071 -0.7071 0.7071 0.7071 -36.223 128.1668)" class="st67" cx="136.6" cy="107.81" rx="53.33" ry="53.33"/>
	
		<ellipse transform="matrix(0.7071 -0.7071 0.7071 0.7071 -36.0137 128.2535)" class="st68" cx="136.81" cy="107.6" rx="53.33" ry="53.33"/>
	
		<ellipse transform="matrix(0.7071 -0.7071 0.7071 0.7071 -35.8043 128.3402)" class="st69" cx="137.02" cy="107.39" rx="53.33" ry="53.33"/>
	
		<ellipse transform="matrix(0.7071 -0.7071 0.7071 0.7071 -35.5949 128.427)" class="st70" cx="137.23" cy="107.18" rx="53.33" ry="53.33"/>
	
		<ellipse transform="matrix(0.7071 -0.7071 0.7071 0.7071 -35.3855 128.5137)" class="st71" cx="137.44" cy="106.97" rx="53.33" ry="53.33"/>
	
		<ellipse transform="matrix(0.7071 -0.7071 0.7071 0.7071 -35.1762 128.6004)" class="st72" cx="137.65" cy="106.76" rx="53.33" ry="53.33"/>
	
		<ellipse transform="matrix(0.7071 -0.7071 0.7071 0.7071 -34.9668 128.6871)" class="st73" cx="137.86" cy="106.55" rx="53.33" ry="53.33"/>
	
		<ellipse transform="matrix(0.7071 -0.7071 0.7071 0.7071 -34.7574 128.7739)" class="st74" cx="138.07" cy="106.34" rx="53.33" ry="53.33"/>
	
		<ellipse transform="matrix(0.7071 -0.7071 0.7071 0.7071 -34.548 128.8606)" class="st75" cx="138.27" cy="106.13" rx="53.33" ry="53.33"/>
	
		<ellipse transform="matrix(0.7071 -0.7071 0.7071 0.7071 -34.3386 128.9473)" class="st76" cx="138.48" cy="105.92" rx="53.33" ry="53.33"/>
	
		<ellipse transform="matrix(0.7071 -0.7071 0.7071 0.7071 -34.1293 129.0341)" class="st77" cx="138.69" cy="105.71" rx="53.33" ry="53.33"/>
	
		<ellipse transform="matrix(0.7071 -0.7071 0.7071 0.7071 -33.9199 129.1208)" class="st78" cx="138.9" cy="105.51" rx="53.33" ry="53.33"/>
	
		<ellipse transform="matrix(0.7071 -0.7071 0.7071 0.7071 -33.7105 129.2075)" class="st79" cx="139.11" cy="105.3" rx="53.33" ry="53.33"/>
	
		<ellipse transform="matrix(0.7071 -0.7071 0.7071 0.7071 -33.5011 129.2942)" class="st80" cx="139.32" cy="105.09" rx="53.33" ry="53.33"/>
	
		<ellipse transform="matrix(0.7071 -0.7071 0.7071 0.7071 -33.2918 129.381)" class="st81" cx="139.53" cy="104.88" rx="53.33" ry="53.33"/>
	
		<ellipse transform="matrix(0.7071 -0.7071 0.7071 0.7071 -33.0824 129.4677)" class="st82" cx="139.74" cy="104.67" rx="53.33" ry="53.33"/>
	
		<ellipse transform="matrix(0.7071 -0.7071 0.7071 0.7071 -32.873 129.5544)" class="st83" cx="139.95" cy="104.46" rx="53.33" ry="53.33"/>
	
		<ellipse transform="matrix(0.7071 -0.7071 0.7071 0.7071 -32.6636 129.6411)" class="st84" cx="140.16" cy="104.25" rx="53.33" ry="53.33"/>
	
		<ellipse transform="matrix(0.7071 -0.7071 0.7071 0.7071 -32.4542 129.7279)" class="st85" cx="140.37" cy="104.04" rx="53.33" ry="53.33"/>
	
		<ellipse transform="matrix(0.7071 -0.7071 0.7071 0.7071 -32.2449 129.8146)" class="st86" cx="140.58" cy="103.83" rx="53.33" ry="53.33"/>
	
		<ellipse transform="matrix(0.7071 -0.7071 0.7071 0.7071 -32.0355 129.9013)" class="st87" cx="140.79" cy="103.62" rx="53.33" ry="53.33"/>
	
		<ellipse transform="matrix(0.7071 -0.7071 0.7071 0.7071 -31.8261 129.988)" class="st88" cx="141" cy="103.41" rx="53.33" ry="53.33"/>
	
		<ellipse transform="matrix(0.7071 -0.7071 0.7071 0.7071 -31.6167 130.0748)" class="st89" cx="141.21" cy="103.2" rx="53.33" ry="53.33"/>
	
		<ellipse transform="matrix(0.7071 -0.7071 0.7071 0.7071 -31.4074 130.1615)" class="st90" cx="141.42" cy="102.99" rx="53.33" ry="53.33"/>
	
		<ellipse transform="matrix(0.7071 -0.7071 0.7071 0.7071 -31.198 130.2482)" class="st91" cx="141.62" cy="102.78" rx="53.33" ry="53.33"/>
	
		<ellipse transform="matrix(0.9239 -0.3827 0.3827 0.9239 -28.4569 62.0854)" class="st92" cx="141.83" cy="102.57" rx="53.33" ry="53.33"/>
	
		<ellipse transform="matrix(0.9239 -0.3827 0.3827 0.9239 -28.3609 62.1496)" class="st93" cx="142.04" cy="102.36" rx="53.33" ry="53.33"/>
	
		<ellipse transform="matrix(0.9239 -0.3827 0.3827 0.9239 -28.2648 62.2138)" class="st94" cx="142.25" cy="102.16" rx="53.33" ry="53.33"/>
	
		<ellipse transform="matrix(0.9239 -0.3827 0.3827 0.9239 -28.1687 62.278)" class="st95" cx="142.46" cy="101.95" rx="53.33" ry="53.33"/>
	
		<ellipse transform="matrix(0.9239 -0.3827 0.3827 0.9239 -28.0727 62.3422)" class="st96" cx="142.67" cy="101.74" rx="53.33" ry="53.33"/>
	
		<ellipse transform="matrix(0.9239 -0.3827 0.3827 0.9239 -27.9766 62.4064)" class="st97" cx="142.88" cy="101.53" rx="53.33" ry="53.33"/>
	
		<ellipse transform="matrix(0.9239 -0.3827 0.3827 0.9239 -27.8805 62.4706)" class="st98" cx="143.09" cy="101.32" rx="53.33" ry="53.33"/>
	
		<ellipse transform="matrix(0.9239 -0.3827 0.3827 0.9239 -27.7845 62.5348)" class="st99" cx="143.3" cy="101.11" rx="53.33" ry="53.33"/>
	
		<ellipse transform="matrix(0.9239 -0.3827 0.3827 0.9239 -27.6884 62.5989)" class="st100" cx="143.51" cy="100.9" rx="53.33" ry="53.33"/>
	
		<ellipse transform="matrix(0.9239 -0.3827 0.3827 0.9239 -27.5923 62.6631)" class="st101" cx="143.72" cy="100.69" rx="53.33" ry="53.33"/>
	
		<ellipse transform="matrix(0.9239 -0.3827 0.3827 0.9239 -27.4963 62.7273)" class="st102" cx="143.93" cy="100.48" rx="53.33" ry="53.33"/>
	
		<ellipse transform="matrix(0.9239 -0.3827 0.3827 0.9239 -27.4002 62.7915)" class="st103" cx="144.14" cy="100.27" rx="53.33" ry="53.33"/>
	
		<ellipse transform="matrix(0.9239 -0.3827 0.3827 0.9239 -27.3042 62.8557)" class="st104" cx="144.35" cy="100.06" rx="53.33" ry="53.33"/>
	
		<ellipse transform="matrix(0.9239 -0.3827 0.3827 0.9239 -27.2081 62.9199)" class="st105" cx="144.56" cy="99.85" rx="53.33" ry="53.33"/>
	
		<ellipse transform="matrix(0.9239 -0.3827 0.3827 0.9239 -27.112 62.9841)" class="st106" cx="144.77" cy="99.64" rx="53.33" ry="53.33"/>
	
		<ellipse transform="matrix(0.9239 -0.3827 0.3827 0.9239 -27.016 63.0483)" class="st107" cx="144.97" cy="99.43" rx="53.33" ry="53.33"/>
	
		<ellipse transform="matrix(0.9239 -0.3827 0.3827 0.9239 -26.9199 63.1124)" class="st108" cx="145.18" cy="99.22" rx="53.33" ry="53.33"/>
	
		<ellipse transform="matrix(0.9239 -0.3827 0.3827 0.9239 -26.8238 63.1766)" class="st109" cx="145.39" cy="99.01" rx="53.33" ry="53.33"/>
	
		<ellipse transform="matrix(0.9239 -0.3827 0.3827 0.9239 -26.7278 63.2408)" class="st110" cx="145.6" cy="98.81" rx="53.33" ry="53.33"/>
	
		<ellipse transform="matrix(0.9239 -0.3827 0.3827 0.9239 -26.6317 63.305)" class="st111" cx="145.81" cy="98.6" rx="53.33" ry="53.33"/>
	
		<ellipse transform="matrix(0.9239 -0.3827 0.3827 0.9239 -26.5357 63.3692)" class="st112" cx="146.02" cy="98.39" rx="53.33" ry="53.33"/>
	
		<ellipse transform="matrix(0.9239 -0.3827 0.3827 0.9239 -26.4396 63.4334)" class="st113" cx="146.23" cy="98.18" rx="53.33" ry="53.33"/>
	
		<ellipse transform="matrix(0.9239 -0.3827 0.3827 0.9239 -26.3435 63.4976)" class="st114" cx="146.44" cy="97.97" rx="53.33" ry="53.33"/>
	
		<ellipse transform="matrix(0.9239 -0.3827 0.3827 0.9239 -26.2475 63.5618)" class="st115" cx="146.65" cy="97.76" rx="53.33" ry="53.33"/>
	
		<ellipse transform="matrix(0.9239 -0.3827 0.3827 0.9239 -26.1514 63.6259)" class="st116" cx="146.86" cy="97.55" rx="53.33" ry="53.33"/>
	
		<ellipse transform="matrix(0.9239 -0.3827 0.3827 0.9239 -26.0553 63.6901)" class="st117" cx="147.07" cy="97.34" rx="53.33" ry="53.33"/>
	
		<ellipse transform="matrix(0.9239 -0.3827 0.3827 0.9239 -25.9593 63.7543)" class="st118" cx="147.28" cy="97.13" rx="53.33" ry="53.33"/>
	
		<ellipse transform="matrix(0.9239 -0.3827 0.3827 0.9239 -25.8632 63.8185)" class="st119" cx="147.49" cy="96.92" rx="53.33" ry="53.33"/>
	
		<ellipse transform="matrix(0.9239 -0.3827 0.3827 0.9239 -25.7671 63.8827)" class="st120" cx="147.7" cy="96.71" rx="53.33" ry="53.33"/>
	
		<ellipse transform="matrix(0.9239 -0.3827 0.3827 0.9239 -25.6711 63.9469)" class="st121" cx="147.91" cy="96.5" rx="53.33" ry="53.33"/>
	
		<ellipse transform="matrix(0.9239 -0.3827 0.3827 0.9239 -25.575 64.0111)" class="st122" cx="148.12" cy="96.29" rx="53.33" ry="53.33"/>
	
		<ellipse transform="matrix(0.9239 -0.3827 0.3827 0.9239 -25.479 64.0752)" class="st123" cx="148.32" cy="96.08" rx="53.33" ry="53.33"/>
	
		<ellipse transform="matrix(0.9239 -0.3827 0.3827 0.9239 -25.3829 64.1394)" class="st124" cx="148.53" cy="95.87" rx="53.33" ry="53.33"/>
	
		<ellipse transform="matrix(0.9239 -0.3827 0.3827 0.9239 -25.2868 64.2036)" class="st125" cx="148.74" cy="95.66" rx="53.33" ry="53.33"/>
	
		<ellipse transform="matrix(0.9239 -0.3827 0.3827 0.9239 -25.1908 64.2678)" class="st126" cx="148.95" cy="95.46" rx="53.33" ry="53.33"/>
	
		<ellipse transform="matrix(0.9239 -0.3827 0.3827 0.9239 -25.0947 64.332)" class="st127" cx="149.16" cy="95.25" rx="53.33" ry="53.33"/>
	
		<ellipse transform="matrix(0.9239 -0.3827 0.3827 0.9239 -24.9986 64.3962)" class="st128" cx="149.37" cy="95.04" rx="53.33" ry="53.33"/>
</g>
<g>
	<defs>
		
			<ellipse id="SVGID_13_" transform="matrix(0.2669 -0.9637 0.9637 0.2669 17.7439 214.9785)" cx="150.18" cy="95.83" rx="55.83" ry="55.83"/>
	</defs>
	<use xlink:href="#SVGID_13_"  style="overflow:visible;fill:#343779;"/>
	<clipPath id="SVGID_2_">
		<use xlink:href="#SVGID_13_"  style="overflow:visible;"/>
	</clipPath>
	<path class="st129" d="M210.12,106.99H129.6c-6.14,0-11.16-5.02-11.16-11.16l0,0c0-6.14,5.02-11.16,11.16-11.16h80.53
		c6.14,0,11.16,5.02,11.16,11.16l0,0C221.29,101.97,216.26,106.99,210.12,106.99z"/>
	<path class="st129" d="M235.56,62.33h-82.68c-6.14,0-11.16-5.02-11.16-11.16l0,0c0-6.14,5.02-11.16,11.16-11.16h82.68
		c6.14,0,11.16,5.02,11.16,11.16l0,0C246.73,57.31,241.7,62.33,235.56,62.33z"/>
	<path class="st129" d="M206.9,84.66H129.6c-6.14,0-11.16-5.02-11.16-11.16l0,0c0-6.14,5.02-11.16,11.16-11.16h77.31
		c6.14,0,11.16,5.02,11.16,11.16l0,0C218.07,79.64,213.04,84.66,206.9,84.66z"/>
	<path class="st129" d="M196.62,151.65h-44.8c-5.56,0-10.1-4.55-10.1-10.1v-2.12c0-5.56,4.55-10.1,10.1-10.1h44.8
		c5.56,0,10.1,4.55,10.1,10.1v2.12C206.72,147.11,202.17,151.65,196.62,151.65z"/>
	<path class="st129" d="M202.76,129.32h-42.67c-6.14,0-11.16-5.02-11.16-11.16l0,0c0-6.14,5.02-11.16,11.16-11.16h42.67
		c6.14,0,11.16,5.02,11.16,11.16l0,0C213.93,124.3,208.9,129.32,202.76,129.32z"/>
</g>
<path class="st141" d="M161.81,84.66h-42.67c-6.14,0-11.16-5.02-11.16-11.16l0,0c0-6.14,5.02-11.16,11.16-11.16h42.67
	c6.14,0,11.16,5.02,11.16,11.16l0,0C172.97,79.64,167.95,84.66,161.81,84.66z"/>
<path class="st141" d="M164.95,129.32h-45.82c-6.14,0-11.16-5.02-11.16-11.16l0,0c0-6.14,5.02-11.16,11.16-11.16h45.82
	c6.14,0,11.16,5.02,11.16,11.16l0,0C176.12,124.3,171.09,129.32,164.95,129.32z"/>
<g>
	<g>
		<path d="M40.5,188.49v-4.55h1.92v4.74c0,1.66,0.52,2.23,1.47,2.23c0.95,0,1.5-0.57,1.5-2.23v-4.74h1.85v4.55
			c0,2.85-1.16,4.08-3.35,4.08C41.7,192.57,40.5,191.33,40.5,188.49z"/>
		<path d="M49.2,183.94h5.31v1.61h-3.39v1.7H54v1.61h-2.89v1.95h3.52v1.61H49.2V183.94z"/>
		<path d="M56.32,183.94h2.09l1.37,3.76c0.17,0.5,0.32,1.04,0.49,1.56h0.05c0.17-0.52,0.31-1.06,0.48-1.56l1.33-3.76h2.09v8.47
			h-1.74v-3.11c0-0.83,0.15-2.06,0.24-2.88h-0.05l-0.7,2.01l-1.2,3.25h-1.06l-1.2-3.25l-0.68-2.01h-0.05
			c0.09,0.82,0.24,2.05,0.24,2.88v3.11h-1.72V183.94z"/>
		<path d="M65.79,188.45h3.19v1.35h-3.19V188.45z"/>
		<path d="M69.45,183.94h2.03l1.02,3.95c0.25,0.93,0.42,1.78,0.68,2.72h0.05c0.26-0.94,0.44-1.79,0.68-2.72l1-3.95h1.96l-2.56,8.47
			h-2.3L69.45,183.94z"/>
		<path d="M77.31,190.63c0-1.36,1.08-2.09,3.63-2.36c-0.04-0.56-0.32-0.93-1.02-0.93c-0.54,0-1.08,0.23-1.71,0.58l-0.68-1.25
			c0.82-0.5,1.74-0.85,2.75-0.85c1.65,0,2.56,0.94,2.56,2.92v3.69H81.3l-0.14-0.66h-0.05c-0.54,0.48-1.15,0.82-1.88,0.82
			C78.06,192.57,77.31,191.71,77.31,190.63z M80.95,190.54v-1.13c-1.36,0.18-1.8,0.57-1.8,1.06c0,0.42,0.29,0.62,0.74,0.62
			C80.32,191.09,80.61,190.88,80.95,190.54z"/>
		<path d="M84.46,185.97h1.56l0.14,0.82h0.05c0.54-0.52,1.19-0.97,2.07-0.97c1.4,0,2,0.99,2,2.6v4h-1.91v-3.76
			c0-0.93-0.25-1.22-0.8-1.22c-0.48,0-0.77,0.22-1.19,0.63v4.35h-1.91V185.97z"/>
		<path d="M91.57,189.19c0-2.11,1.32-3.38,2.67-3.38c0.71,0,1.15,0.26,1.58,0.67l-0.07-0.98v-2.2h1.91v9.11h-1.56l-0.14-0.64h-0.05
			c-0.46,0.46-1.09,0.8-1.72,0.8C92.6,192.57,91.57,191.3,91.57,189.19z M95.75,190.43v-2.65c-0.34-0.3-0.72-0.41-1.07-0.41
			c-0.62,0-1.16,0.57-1.16,1.8c0,1.27,0.44,1.84,1.18,1.84C95.11,191.01,95.44,190.85,95.75,190.43z"/>
		<path d="M98.97,189.19c0-2.09,1.49-3.38,3.04-3.38c1.84,0,2.75,1.34,2.75,3.1c0,0.34-0.04,0.69-0.08,0.84h-3.86
			c0.17,0.94,0.81,1.36,1.67,1.36c0.49,0,0.93-0.15,1.39-0.42l0.63,1.15c-0.66,0.46-1.52,0.73-2.29,0.73
			C100.4,192.57,98.97,191.33,98.97,189.19z M103.13,188.49c0-0.71-0.31-1.22-1.07-1.22c-0.6,0-1.12,0.41-1.25,1.22H103.13z"/>
		<path d="M106.08,185.97h1.56l0.14,1.13h0.05c0.47-0.86,1.17-1.28,1.83-1.28c0.37,0,0.58,0.05,0.77,0.13l-0.32,1.65
			c-0.23-0.06-0.42-0.1-0.7-0.1c-0.49,0-1.08,0.31-1.42,1.19v3.74h-1.91V185.97z"/>
		<path d="M112.96,191.73h-0.05l-0.16,0.69h-1.5v-9.11h1.91v2.23l-0.05,0.99c0.49-0.44,1.1-0.71,1.71-0.71
			c1.56,0,2.53,1.29,2.53,3.27c0,2.22-1.32,3.49-2.71,3.49C114.06,192.57,113.47,192.28,112.96,191.73z M115.39,189.11
			c0-1.16-0.36-1.74-1.12-1.74c-0.39,0-0.74,0.18-1.11,0.58v2.65c0.34,0.3,0.71,0.41,1.03,0.41
			C114.86,191.01,115.39,190.45,115.39,189.11z"/>
		<path d="M118.56,184.02c0-0.59,0.46-1,1.11-1s1.11,0.41,1.11,1c0,0.58-0.46,1-1.11,1S118.56,184.6,118.56,184.02z M118.7,185.97
			h1.91v6.45h-1.91V185.97z"/>
		<path d="M122.29,190.41v-7.1h1.91v7.18c0,0.41,0.19,0.54,0.35,0.54c0.07,0,0.13,0,0.23-0.03l0.23,1.41
			c-0.21,0.09-0.52,0.16-0.96,0.16C122.74,192.57,122.29,191.72,122.29,190.41z"/>
		<path d="M126.27,190.07v-2.6h-0.88v-1.43l0.99-0.07l0.22-1.71h1.58v1.71h1.55v1.5h-1.55v2.58c0,0.73,0.33,1.02,0.83,1.02
			c0.21,0,0.44-0.06,0.61-0.12l0.3,1.39c-0.34,0.11-0.81,0.23-1.43,0.23C126.9,192.57,126.27,191.57,126.27,190.07z"/>
		<path d="M135.32,183.94h2.29l2.66,8.47h-2.03l-1.11-4.29c-0.24-0.85-0.46-1.85-0.69-2.73h-0.05c-0.21,0.89-0.43,1.89-0.67,2.73
			l-1.11,4.29h-1.96L135.32,183.94z M134.42,188.91h4.08v1.49h-4.08V188.91z"/>
		<path d="M140.66,189.19c0-2.14,1.58-3.38,3.36-3.38c0.79,0,1.4,0.28,1.88,0.69l-0.9,1.23c-0.31-0.26-0.57-0.38-0.87-0.38
			c-0.92,0-1.51,0.72-1.51,1.84s0.61,1.84,1.44,1.84c0.42,0,0.83-0.21,1.16-0.48l0.75,1.25c-0.63,0.55-1.43,0.77-2.13,0.77
			C142.05,192.57,140.66,191.33,140.66,189.19z"/>
		<path d="M146.81,190.63c0-1.36,1.08-2.09,3.63-2.36c-0.04-0.56-0.32-0.93-1.02-0.93c-0.54,0-1.08,0.23-1.71,0.58l-0.68-1.25
			c0.82-0.5,1.74-0.85,2.75-0.85c1.65,0,2.56,0.94,2.56,2.92v3.69h-1.56l-0.14-0.66h-0.05c-0.54,0.48-1.15,0.82-1.88,0.82
			C147.56,192.57,146.81,191.71,146.81,190.63z M150.44,190.54v-1.13c-1.36,0.18-1.8,0.57-1.8,1.06c0,0.42,0.29,0.62,0.74,0.62
			C149.81,191.09,150.1,190.88,150.44,190.54z"/>
		<path d="M153.63,189.19c0-2.11,1.32-3.38,2.68-3.38c0.71,0,1.15,0.26,1.58,0.67l-0.07-0.98v-2.2h1.91v9.11h-1.56l-0.14-0.64h-0.05
			c-0.46,0.46-1.09,0.8-1.72,0.8C154.66,192.57,153.63,191.3,153.63,189.19z M157.81,190.43v-2.65c-0.34-0.3-0.72-0.41-1.07-0.41
			c-0.62,0-1.16,0.57-1.16,1.8c0,1.27,0.44,1.84,1.18,1.84C157.17,191.01,157.5,190.85,157.81,190.43z"/>
		<path d="M161.03,189.19c0-2.09,1.49-3.38,3.04-3.38c1.84,0,2.75,1.34,2.75,3.1c0,0.34-0.04,0.69-0.08,0.84h-3.86
			c0.17,0.94,0.81,1.36,1.67,1.36c0.49,0,0.93-0.15,1.4-0.42l0.63,1.15c-0.66,0.46-1.52,0.73-2.29,0.73
			C162.46,192.57,161.03,191.33,161.03,189.19z M165.19,188.49c0-0.71-0.31-1.22-1.07-1.22c-0.6,0-1.12,0.41-1.26,1.22H165.19z"/>
		<path d="M168.14,185.97h1.56l0.14,0.83h0.05c0.53-0.53,1.11-0.98,1.96-0.98c0.91,0,1.45,0.39,1.78,1.09
			c0.57-0.59,1.17-1.09,2.02-1.09c1.39,0,2.02,0.99,2.02,2.6v4h-1.91v-3.76c0-0.93-0.25-1.22-0.8-1.22c-0.32,0-0.69,0.2-1.1,0.63
			v4.35h-1.91v-3.76c0-0.93-0.25-1.22-0.8-1.22c-0.32,0-0.69,0.2-1.1,0.63v4.35h-1.91V185.97z"/>
		<path d="M179.13,184.02c0-0.59,0.47-1,1.11-1s1.11,0.41,1.11,1c0,0.58-0.47,1-1.11,1S179.13,184.6,179.13,184.02z M179.28,185.97
			h1.91v6.45h-1.91V185.97z"/>
		<path d="M182.5,189.19c0-2.14,1.58-3.38,3.36-3.38c0.79,0,1.4,0.28,1.88,0.69l-0.9,1.23c-0.31-0.26-0.57-0.38-0.88-0.38
			c-0.92,0-1.51,0.72-1.51,1.84s0.62,1.84,1.45,1.84c0.42,0,0.83-0.21,1.16-0.48l0.75,1.25c-0.63,0.55-1.43,0.77-2.13,0.77
			C183.88,192.57,182.5,191.33,182.5,189.19z"/>
		<path d="M191.7,183.94h2.91c1.86,0,3.37,0.67,3.37,2.73c0,1.99-1.52,2.87-3.32,2.87h-1.05v2.88h-1.92V183.94z M194.55,188.02
			c1.05,0,1.55-0.47,1.55-1.35c0-0.89-0.57-1.2-1.6-1.2h-0.88v2.56H194.55z"/>
		<path d="M198.99,190.63c0-1.36,1.08-2.09,3.63-2.36c-0.04-0.56-0.32-0.93-1.02-0.93c-0.54,0-1.08,0.23-1.71,0.58l-0.68-1.25
			c0.82-0.5,1.74-0.85,2.75-0.85c1.65,0,2.56,0.94,2.56,2.92v3.69h-1.56l-0.14-0.66h-0.05c-0.54,0.48-1.15,0.82-1.88,0.82
			C199.74,192.57,198.99,191.71,198.99,190.63z M202.62,190.54v-1.13c-1.36,0.18-1.8,0.57-1.8,1.06c0,0.42,0.29,0.62,0.74,0.62
			C202,191.09,202.29,190.88,202.62,190.54z"/>
		<path d="M206.14,185.97h1.56l0.14,1.13h0.05c0.47-0.86,1.17-1.28,1.83-1.28c0.37,0,0.58,0.05,0.77,0.13l-0.32,1.65
			c-0.23-0.06-0.42-0.1-0.7-0.1c-0.49,0-1.08,0.31-1.42,1.19v3.74h-1.91V185.97z"/>
		<path d="M211.57,190.07v-2.6h-0.88v-1.43l0.99-0.07l0.22-1.71h1.58v1.71h1.55v1.5h-1.55v2.58c0,0.73,0.33,1.02,0.83,1.02
			c0.21,0,0.44-0.06,0.61-0.12l0.3,1.39c-0.34,0.11-0.81,0.23-1.43,0.23C212.21,192.57,211.57,191.57,211.57,190.07z"/>
		<path d="M216.29,185.97h1.56l0.14,0.82h0.05c0.54-0.52,1.19-0.97,2.07-0.97c1.4,0,2,0.99,2,2.6v4h-1.91v-3.76
			c0-0.93-0.25-1.22-0.8-1.22c-0.48,0-0.77,0.22-1.19,0.63v4.35h-1.91V185.97z"/>
		<path d="M223.35,189.19c0-2.09,1.49-3.38,3.04-3.38c1.84,0,2.75,1.34,2.75,3.1c0,0.34-0.04,0.69-0.08,0.84h-3.86
			c0.17,0.94,0.81,1.36,1.67,1.36c0.49,0,0.93-0.15,1.4-0.42l0.63,1.15c-0.66,0.46-1.52,0.73-2.29,0.73
			C224.78,192.57,223.35,191.33,223.35,189.19z M227.51,188.49c0-0.71-0.31-1.22-1.07-1.22c-0.6,0-1.12,0.41-1.26,1.22H227.51z"/>
		<path d="M230.46,185.97h1.56l0.14,1.13h0.05c0.47-0.86,1.17-1.28,1.83-1.28c0.37,0,0.58,0.05,0.77,0.13l-0.32,1.65
			c-0.23-0.06-0.42-0.1-0.7-0.1c-0.49,0-1.08,0.31-1.42,1.19v3.74h-1.91V185.97z"/>
		<path d="M235.07,191.67l0.86-1.19c0.58,0.44,1.12,0.68,1.66,0.68c0.57,0,0.82-0.22,0.82-0.55c0-0.42-0.64-0.62-1.3-0.88
			c-0.79-0.31-1.71-0.83-1.71-1.9c0-1.2,0.98-2.02,2.46-2.02c0.99,0,1.72,0.4,2.27,0.82l-0.86,1.15c-0.46-0.33-0.91-0.55-1.36-0.55
			c-0.49,0-0.74,0.19-0.74,0.52c0,0.41,0.6,0.57,1.27,0.81c0.82,0.3,1.74,0.76,1.74,1.94c0,1.17-0.92,2.08-2.65,2.08
			C236.69,192.57,235.72,192.2,235.07,191.67z"/>
		<path d="M241.4,183.31h1.91v2.23l-0.09,1.17c0.48-0.44,1.11-0.89,1.99-0.89c1.4,0,2,0.99,2,2.6v4h-1.91v-3.76
			c0-0.93-0.25-1.22-0.8-1.22c-0.48,0-0.77,0.22-1.19,0.63v4.35h-1.91V183.31z"/>
		<path d="M248.67,184.02c0-0.59,0.47-1,1.11-1s1.11,0.41,1.11,1c0,0.58-0.47,1-1.11,1S248.67,184.6,248.67,184.02z M248.82,185.97
			h1.91v6.45h-1.91V185.97z"/>
		<path d="M252.41,185.97h1.56l0.14,0.63h0.05c0.51-0.45,1.16-0.79,1.84-0.79c1.56,0,2.52,1.29,2.52,3.28
			c0,2.21-1.32,3.48-2.71,3.48c-0.56,0-1.08-0.24-1.54-0.67l0.06,1.02v1.89h-1.91V185.97z M256.55,189.11
			c0-1.16-0.36-1.74-1.12-1.74c-0.39,0-0.73,0.18-1.11,0.58v2.65c0.35,0.3,0.71,0.41,1.03,0.41
			C256.01,191.01,256.55,190.45,256.55,189.11z"/>
		<path d="M62.86,201.64l0.97-0.07h2.96v1.5h-3.93V201.64z M63.71,201.23c0-1.36,0.63-2.48,2.37-2.48c0.54,0,1,0.12,1.29,0.23
			l-0.34,1.41c-0.22-0.09-0.46-0.14-0.67-0.14c-0.47,0-0.74,0.26-0.74,0.92v6.84h-1.91V201.23z"/>
		<path d="M67.44,204.79c0-2.14,1.51-3.38,3.14-3.38c1.63,0,3.14,1.24,3.14,3.38c0,2.14-1.51,3.38-3.14,3.38
			C68.95,208.17,67.44,206.93,67.44,204.79z M71.77,204.79c0-1.12-0.39-1.84-1.18-1.84s-1.18,0.72-1.18,1.84s0.39,1.84,1.18,1.84
			S71.77,205.91,71.77,204.79z"/>
		<path d="M75.03,201.57h1.56l0.14,1.13h0.05c0.47-0.86,1.17-1.28,1.83-1.28c0.37,0,0.58,0.05,0.77,0.13l-0.32,1.65
			c-0.23-0.06-0.42-0.1-0.7-0.1c-0.49,0-1.08,0.31-1.42,1.19v3.74h-1.91V201.57z"/>
		<path d="M82.96,199.54h5.31v1.61h-3.39v1.7h2.89v1.61h-2.89v1.95h3.52v1.61h-5.44V199.54z"/>
		<path d="M89.93,201.57h1.56l0.14,0.82h0.05c0.54-0.52,1.19-0.97,2.07-0.97c1.4,0,2,0.99,2,2.6v4h-1.91v-3.76
			c0-0.93-0.25-1.22-0.8-1.22c-0.48,0-0.77,0.22-1.19,0.63v4.35h-1.91V201.57z"/>
		<path d="M97.36,198.91h1.91v2.22l-0.09,1.17c0.48-0.44,1.11-0.89,1.99-0.89c1.4,0,2,0.99,2,2.6v4h-1.91v-3.76
			c0-0.93-0.25-1.22-0.8-1.22c-0.48,0-0.77,0.22-1.19,0.63v4.35h-1.91V198.91z"/>
		<path d="M104.49,206.23c0-1.36,1.08-2.09,3.63-2.36c-0.04-0.56-0.32-0.93-1.02-0.93c-0.54,0-1.08,0.23-1.71,0.58l-0.68-1.25
			c0.82-0.5,1.74-0.85,2.75-0.85c1.65,0,2.56,0.94,2.56,2.92v3.69h-1.56l-0.14-0.66h-0.05c-0.54,0.48-1.15,0.82-1.88,0.82
			C105.24,208.17,104.49,207.31,104.49,206.23z M108.12,206.14v-1.13c-1.36,0.18-1.8,0.57-1.8,1.06c0,0.42,0.29,0.62,0.74,0.62
			C107.49,206.69,107.78,206.48,108.12,206.14z"/>
		<path d="M111.64,201.57h1.56l0.14,0.82h0.05c0.54-0.52,1.19-0.97,2.07-0.97c1.4,0,2,0.99,2,2.6v4h-1.91v-3.76
			c0-0.93-0.25-1.22-0.8-1.22c-0.48,0-0.77,0.22-1.19,0.63v4.35h-1.91V201.57z"/>
		<path d="M118.7,204.79c0-2.14,1.58-3.38,3.36-3.38c0.79,0,1.4,0.28,1.88,0.69l-0.9,1.23c-0.31-0.26-0.57-0.38-0.87-0.38
			c-0.92,0-1.51,0.72-1.51,1.84s0.61,1.84,1.44,1.84c0.42,0,0.83-0.21,1.16-0.47l0.75,1.25c-0.63,0.55-1.43,0.77-2.13,0.77
			C120.09,208.17,118.7,206.93,118.7,204.79z"/>
		<path d="M124.77,204.79c0-2.09,1.49-3.38,3.04-3.38c1.84,0,2.75,1.33,2.75,3.1c0,0.34-0.04,0.69-0.08,0.84h-3.86
			c0.17,0.94,0.81,1.37,1.67,1.37c0.49,0,0.93-0.15,1.39-0.42l0.63,1.15c-0.66,0.46-1.52,0.73-2.29,0.73
			C126.19,208.17,124.77,206.93,124.77,204.79z M128.93,204.09c0-0.71-0.31-1.22-1.07-1.22c-0.6,0-1.12,0.41-1.25,1.22H128.93z"/>
		<path d="M131.88,201.57h1.56l0.14,0.83h0.05c0.53-0.53,1.11-0.98,1.95-0.98c0.91,0,1.45,0.39,1.78,1.08
			c0.57-0.59,1.17-1.08,2.02-1.08c1.39,0,2.02,0.99,2.02,2.6v4h-1.91v-3.76c0-0.93-0.25-1.22-0.8-1.22c-0.32,0-0.69,0.2-1.1,0.63
			v4.35h-1.91v-3.76c0-0.93-0.25-1.22-0.8-1.22c-0.32,0-0.69,0.2-1.1,0.63v4.35h-1.91V201.57z"/>
		<path d="M142.65,204.79c0-2.09,1.49-3.38,3.04-3.38c1.84,0,2.75,1.33,2.75,3.1c0,0.34-0.04,0.69-0.08,0.84h-3.86
			c0.17,0.94,0.81,1.37,1.67,1.37c0.49,0,0.93-0.15,1.39-0.42l0.63,1.15c-0.66,0.46-1.52,0.73-2.29,0.73
			C144.07,208.17,142.65,206.93,142.65,204.79z M146.8,204.09c0-0.71-0.31-1.22-1.07-1.22c-0.6,0-1.13,0.41-1.26,1.22H146.8z"/>
		<path d="M149.75,201.57h1.56l0.14,0.82h0.05c0.54-0.52,1.19-0.97,2.07-0.97c1.4,0,2,0.99,2,2.6v4h-1.91v-3.76
			c0-0.93-0.25-1.22-0.8-1.22c-0.48,0-0.77,0.22-1.19,0.63v4.35h-1.91V201.57z"/>
		<path d="M157.45,205.67v-2.61h-0.88v-1.43l0.99-0.07l0.22-1.71h1.58v1.71h1.55v1.5h-1.55v2.58c0,0.73,0.33,1.02,0.83,1.02
			c0.21,0,0.44-0.06,0.61-0.12l0.3,1.39c-0.34,0.11-0.81,0.23-1.43,0.23C158.08,208.17,157.45,207.17,157.45,205.67z"/>
		<path d="M161.6,207.27l0.86-1.19c0.58,0.44,1.12,0.68,1.66,0.68c0.57,0,0.82-0.22,0.82-0.55c0-0.42-0.64-0.62-1.3-0.88
			c-0.79-0.31-1.71-0.83-1.71-1.9c0-1.2,0.98-2.02,2.46-2.02c0.99,0,1.72,0.4,2.27,0.82l-0.86,1.15c-0.46-0.33-0.91-0.55-1.36-0.55
			c-0.49,0-0.74,0.19-0.74,0.52c0,0.41,0.6,0.57,1.27,0.81c0.82,0.3,1.74,0.76,1.74,1.94c0,1.17-0.92,2.08-2.65,2.08
			C163.22,208.17,162.25,207.8,161.6,207.27z"/>
		<path d="M170.38,199.62c0-0.59,0.47-1,1.11-1s1.11,0.41,1.11,1c0,0.58-0.47,1-1.11,1S170.38,200.21,170.38,199.62z M170.53,201.57
			h1.91v6.45h-1.91V201.57z"/>
		<path d="M174.12,201.57h1.56l0.14,0.82h0.05c0.54-0.52,1.19-0.97,2.07-0.97c1.4,0,2,0.99,2,2.6v4h-1.91v-3.76
			c0-0.93-0.25-1.22-0.8-1.22c-0.48,0-0.77,0.22-1.19,0.63v4.35h-1.91V201.57z"/>
		<path d="M184.31,199.54h3.05c1.8,0,3.27,0.62,3.27,2.64c0,1.95-1.47,2.79-3.27,2.79h-1.14v3.05h-1.92V199.54z M187.21,203.45
			c1.01,0,1.55-0.43,1.55-1.26c0-0.84-0.54-1.12-1.55-1.12h-0.98v2.38H187.21z M187.01,204.46l1.33-1.23l2.7,4.78h-2.14
			L187.01,204.46z"/>
		<path d="M191.75,204.79c0-2.09,1.49-3.38,3.04-3.38c1.84,0,2.75,1.33,2.75,3.1c0,0.34-0.04,0.69-0.08,0.84h-3.86
			c0.17,0.94,0.81,1.37,1.67,1.37c0.49,0,0.93-0.15,1.4-0.42l0.63,1.15c-0.66,0.46-1.52,0.73-2.29,0.73
			C193.17,208.17,191.75,206.93,191.75,204.79z M195.9,204.09c0-0.71-0.31-1.22-1.07-1.22c-0.6,0-1.12,0.41-1.26,1.22H195.9z"/>
		<path d="M198.28,207.27l0.86-1.19c0.58,0.44,1.12,0.68,1.66,0.68c0.57,0,0.82-0.22,0.82-0.55c0-0.42-0.64-0.62-1.3-0.88
			c-0.79-0.31-1.71-0.83-1.71-1.9c0-1.2,0.98-2.02,2.46-2.02c0.99,0,1.72,0.4,2.27,0.82l-0.86,1.15c-0.46-0.33-0.91-0.55-1.36-0.55
			c-0.49,0-0.74,0.19-0.74,0.52c0,0.41,0.6,0.57,1.27,0.81c0.82,0.3,1.74,0.76,1.74,1.94c0,1.17-0.92,2.08-2.65,2.08
			C199.91,208.17,198.94,207.8,198.28,207.27z"/>
		<path d="M204.24,204.79c0-2.09,1.49-3.38,3.04-3.38c1.84,0,2.75,1.33,2.75,3.1c0,0.34-0.04,0.69-0.08,0.84h-3.86
			c0.17,0.94,0.81,1.37,1.67,1.37c0.49,0,0.93-0.15,1.4-0.42l0.63,1.15c-0.66,0.46-1.52,0.73-2.29,0.73
			C205.66,208.17,204.24,206.93,204.24,204.79z M208.39,204.09c0-0.71-0.31-1.22-1.07-1.22c-0.6,0-1.12,0.41-1.26,1.22H208.39z"/>
		<path d="M211.05,206.23c0-1.36,1.08-2.09,3.63-2.36c-0.04-0.56-0.32-0.93-1.02-0.93c-0.54,0-1.08,0.23-1.71,0.58l-0.68-1.25
			c0.82-0.5,1.74-0.85,2.75-0.85c1.65,0,2.56,0.94,2.56,2.92v3.69h-1.56l-0.14-0.66h-0.05c-0.54,0.48-1.15,0.82-1.88,0.82
			C211.8,208.17,211.05,207.31,211.05,206.23z M214.68,206.14v-1.13c-1.36,0.18-1.8,0.57-1.8,1.06c0,0.42,0.29,0.62,0.74,0.62
			C214.05,206.69,214.34,206.48,214.68,206.14z"/>
		<path d="M218.2,201.57h1.56l0.14,1.13h0.05c0.47-0.86,1.17-1.28,1.83-1.28c0.37,0,0.58,0.05,0.77,0.13l-0.32,1.65
			c-0.23-0.06-0.42-0.1-0.7-0.1c-0.49,0-1.08,0.31-1.42,1.19v3.74h-1.91V201.57z"/>
		<path d="M223,204.79c0-2.14,1.58-3.38,3.36-3.38c0.79,0,1.4,0.28,1.88,0.69l-0.9,1.23c-0.31-0.26-0.57-0.38-0.88-0.38
			c-0.92,0-1.51,0.72-1.51,1.84s0.61,1.84,1.45,1.84c0.42,0,0.83-0.21,1.16-0.47l0.75,1.25c-0.63,0.55-1.43,0.77-2.13,0.77
			C224.39,208.17,223,206.93,223,204.79z"/>
		<path d="M229.44,198.91h1.91v2.22l-0.09,1.17c0.48-0.44,1.11-0.89,1.99-0.89c1.4,0,2,0.99,2,2.6v4h-1.91v-3.76
			c0-0.93-0.25-1.22-0.8-1.22c-0.48,0-0.77,0.22-1.19,0.63v4.35h-1.91V198.91z"/>
	</g>
</g>
<g>
	<g>
		<path class="st131" d="M126.87,87.91h4.23l4.91,15.64h-3.74l-2.05-7.92c-0.44-1.56-0.85-3.41-1.27-5.05h-0.1
			c-0.38,1.65-0.8,3.48-1.23,5.05l-2.06,7.92h-3.62L126.87,87.91z M125.19,97.08h7.53v2.75h-7.53V97.08z"/>
		<path class="st131" d="M137.71,87.91h5.37c3.44,0,6.22,1.23,6.22,5.03c0,3.68-2.81,5.3-6.12,5.3h-1.93v5.31h-3.54V87.91z
			 M142.97,95.44c1.94,0,2.87-0.87,2.87-2.5c0-1.64-1.05-2.22-2.96-2.22h-1.63v4.72H142.97z"/>
		<path class="st131" d="M152.01,87.91h9.8v2.97h-6.27v3.14h5.33v2.97h-5.33v3.6h6.51v2.97h-10.04V87.91z"/>
		<path class="st131" d="M165.16,87.91h5.63c3.32,0,6.04,1.15,6.04,4.87c0,3.6-2.72,5.14-6.04,5.14h-2.1v5.63h-3.54V87.91z
			 M170.51,95.12c1.86,0,2.86-0.8,2.86-2.33c0-1.55-1-2.06-2.86-2.06h-1.81v4.4H170.51z M170.15,96.99l2.45-2.26l4.99,8.83h-3.96
			L170.15,96.99z"/>
	</g>
</g>
</svg>
