<?xml version="1.0" encoding="utf-8"?>
<!-- Generator: Adobe Illustrator 25.2.3, SVG Export Plug-In . SVG Version: 6.00 Build 0)  -->
<svg version="1.1" id="Layer_1" xmlns="http://www.w3.org/2000/svg" xmlns:xlink="http://www.w3.org/1999/xlink" x="0px" y="0px"
	 viewBox="0 0 300 251" style="enable-background:new 0 0 300 251;" xml:space="preserve">
<style type="text/css">
	.st0{opacity:0;fill:#FFFFFF;}
	.st1{opacity:7.812500e-03;fill:#FEFEFE;}
	.st2{opacity:0.0156;fill:#FDFDFD;}
	.st3{opacity:0.0234;fill:#FCFCFC;}
	.st4{opacity:0.0312;fill:#FBFBFB;}
	.st5{opacity:0.0391;fill:#FAFAFA;}
	.st6{opacity:0.0469;fill:#F9F9F9;}
	.st7{opacity:0.0547;fill:#F8F8F8;}
	.st8{opacity:0.0625;fill:#F7F7F7;}
	.st9{opacity:0.0703;fill:#F6F6F6;}
	.st10{opacity:0.0781;fill:#F5F5F5;}
	.st11{opacity:0.0859;fill:#F4F4F4;}
	.st12{opacity:0.0938;fill:#F3F3F3;}
	.st13{opacity:0.1016;fill:#F2F2F2;}
	.st14{opacity:0.1094;fill:#F1F1F1;}
	.st15{opacity:0.1172;fill:#F0F0F0;}
	.st16{opacity:0.125;fill:#EFEFEF;}
	.st17{opacity:0.1328;fill:#EEEEEE;}
	.st18{opacity:0.1406;fill:#EDEDED;}
	.st19{opacity:0.1484;fill:#ECECEC;}
	.st20{opacity:0.1562;fill:#EBEBEB;}
	.st21{opacity:0.1641;fill:#EAEAEA;}
	.st22{opacity:0.1719;fill:#E9E9E9;}
	.st23{opacity:0.1797;fill:#E8E8E8;}
	.st24{opacity:0.1875;fill:#E7E7E7;}
	.st25{opacity:0.1953;fill:#E6E6E6;}
	.st26{opacity:0.2031;fill:#E5E5E5;}
	.st27{opacity:0.2109;fill:#E4E4E4;}
	.st28{opacity:0.2188;fill:#E3E3E3;}
	.st29{opacity:0.2266;fill:#E2E2E2;}
	.st30{opacity:0.2344;fill:#E1E1E1;}
	.st31{opacity:0.2422;fill:#E0E0E0;}
	.st32{opacity:0.25;fill:#DFDFDF;}
	.st33{opacity:0.2578;fill:#DEDEDE;}
	.st34{opacity:0.2656;fill:#DDDDDD;}
	.st35{opacity:0.2734;fill:#DCDCDC;}
	.st36{opacity:0.2812;fill:#DBDBDB;}
	.st37{opacity:0.2891;fill:#DADADA;}
	.st38{opacity:0.2969;fill:#D9D9D9;}
	.st39{opacity:0.3047;fill:#D8D8D8;}
	.st40{opacity:0.3125;fill:#D7D7D7;}
	.st41{opacity:0.3203;fill:#D6D6D6;}
	.st42{opacity:0.3281;fill:#D5D5D5;}
	.st43{opacity:0.3359;fill:#D4D4D4;}
	.st44{opacity:0.3438;fill:#D3D3D3;}
	.st45{opacity:0.3516;fill:#D2D2D2;}
	.st46{opacity:0.3594;fill:#D1D1D1;}
	.st47{opacity:0.3672;fill:#D0D0D0;}
	.st48{opacity:0.375;fill:#CFCFCF;}
	.st49{opacity:0.3828;fill:#CECECE;}
	.st50{opacity:0.3906;fill:#CDCDCD;}
	.st51{opacity:0.3984;fill:#CCCCCC;}
	.st52{opacity:0.4062;fill:#CBCBCB;}
	.st53{opacity:0.4141;fill:#CACACA;}
	.st54{opacity:0.4219;fill:#C9C9C9;}
	.st55{opacity:0.4297;fill:#C8C8C8;}
	.st56{opacity:0.4375;fill:#C7C7C7;}
	.st57{opacity:0.4453;fill:#C6C6C6;}
	.st58{opacity:0.4531;fill:#C5C5C5;}
	.st59{opacity:0.4609;fill:#C4C4C4;}
	.st60{opacity:0.4688;fill:#C3C3C3;}
	.st61{opacity:0.4766;fill:#C2C2C2;}
	.st62{opacity:0.4844;fill:#C1C1C1;}
	.st63{opacity:0.4922;fill:#C0C0C0;}
	.st64{opacity:0.5;fill:#C0C0C0;}
	.st65{opacity:0.5078;fill:#BFBFBF;}
	.st66{opacity:0.5156;fill:#BEBEBE;}
	.st67{opacity:0.5234;fill:#BDBDBD;}
	.st68{opacity:0.5312;fill:#BCBCBC;}
	.st69{opacity:0.5391;fill:#BBBBBB;}
	.st70{opacity:0.5469;fill:#BABABA;}
	.st71{opacity:0.5547;fill:#B9B9B9;}
	.st72{opacity:0.5625;fill:#B8B8B8;}
	.st73{opacity:0.5703;fill:#B7B7B7;}
	.st74{opacity:0.5781;fill:#B6B6B6;}
	.st75{opacity:0.5859;fill:#B5B5B5;}
	.st76{opacity:0.5938;fill:#B4B4B4;}
	.st77{opacity:0.6016;fill:#B3B3B3;}
	.st78{opacity:0.6094;fill:#B2B2B2;}
	.st79{opacity:0.6172;fill:#B1B1B1;}
	.st80{opacity:0.625;fill:#B0B0B0;}
	.st81{opacity:0.6328;fill:#AFAFAF;}
	.st82{opacity:0.6406;fill:#AEAEAE;}
	.st83{opacity:0.6484;fill:#ADADAD;}
	.st84{opacity:0.6562;fill:#ACACAC;}
	.st85{opacity:0.6641;fill:#ABABAB;}
	.st86{opacity:0.6719;fill:#AAAAAA;}
	.st87{opacity:0.6797;fill:#A9A9A9;}
	.st88{opacity:0.6875;fill:#A8A8A8;}
	.st89{opacity:0.6953;fill:#A7A7A7;}
	.st90{opacity:0.7031;fill:#A6A6A6;}
	.st91{opacity:0.7109;fill:#A5A5A5;}
	.st92{opacity:0.7188;fill:#A4A4A4;}
	.st93{opacity:0.7266;fill:#A3A3A3;}
	.st94{opacity:0.7344;fill:#A2A2A2;}
	.st95{opacity:0.7422;fill:#A1A1A1;}
	.st96{opacity:0.75;fill:#A0A0A0;}
	.st97{opacity:0.7578;fill:#9F9F9F;}
	.st98{opacity:0.7656;fill:#9E9E9E;}
	.st99{opacity:0.7734;fill:#9D9D9D;}
	.st100{opacity:0.7812;fill:#9C9C9C;}
	.st101{opacity:0.7891;fill:#9B9B9B;}
	.st102{opacity:0.7969;fill:#9A9A9A;}
	.st103{opacity:0.8047;fill:#999999;}
	.st104{opacity:0.8125;fill:#989898;}
	.st105{opacity:0.8203;fill:#979797;}
	.st106{opacity:0.8281;fill:#969696;}
	.st107{opacity:0.8359;fill:#959595;}
	.st108{opacity:0.8438;fill:#949494;}
	.st109{opacity:0.8516;fill:#939393;}
	.st110{opacity:0.8594;fill:#929292;}
	.st111{opacity:0.8672;fill:#919191;}
	.st112{opacity:0.875;fill:#909090;}
	.st113{opacity:0.8828;fill:#8F8F8F;}
	.st114{opacity:0.8906;fill:#8E8E8E;}
	.st115{opacity:0.8984;fill:#8D8D8D;}
	.st116{opacity:0.9062;fill:#8C8C8C;}
	.st117{opacity:0.9141;fill:#8B8B8B;}
	.st118{opacity:0.9219;fill:#8A8A8A;}
	.st119{opacity:0.9297;fill:#898989;}
	.st120{opacity:0.9375;fill:#888888;}
	.st121{opacity:0.9453;fill:#878787;}
	.st122{opacity:0.9531;fill:#868686;}
	.st123{opacity:0.9609;fill:#858585;}
	.st124{opacity:0.9688;fill:#848484;}
	.st125{opacity:0.9766;fill:#838383;}
	.st126{opacity:0.9844;fill:#828282;}
	.st127{opacity:0.9922;fill:#818181;}
	.st128{fill:#808080;}
	.st129{clip-path:url(#SVGID_2_);fill:#575756;}
	.st130{fill:#33A9AC;}
	.st131{fill:#FFFFFF;}
	.st132{clip-path:url(#SVGID_4_);fill:#575756;}
	.st133{clip-path:url(#SVGID_6_);fill:#575756;}
	.st134{fill:#FFA646;}
	.st135{clip-path:url(#SVGID_8_);fill:#575756;}
	.st136{clip-path:url(#SVGID_10_);fill:#575756;}
	.st137{fill:#F86041;}
	.st138{clip-path:url(#SVGID_12_);fill:#575756;}
	.st139{fill:#982062;}
	.st140{clip-path:url(#SVGID_14_);fill:#575756;}
	.st141{fill:#343779;}
	.st142{clip-path:url(#SVGID_16_);fill:#575756;}
	.st143{fill:#0B75E0;}
	.st144{opacity:0.5;fill:#FFFFFF;}
	.st145{clip-path:url(#SVGID_18_);fill:#FFFFFF;}
	.st146{clip-path:url(#SVGID_20_);fill:#575756;}
	.st147{clip-path:url(#SVGID_22_);fill:#575756;}
	.st148{clip-path:url(#SVGID_24_);fill:#575756;}
	.st149{fill:#9EBB5F;}
	.st150{clip-path:url(#SVGID_26_);fill:#575756;}
	.st151{fill:#D8AB4C;}
	.st152{clip-path:url(#SVGID_28_);fill:#575756;}
	.st153{fill:#93278F;}
</style>
<g>
	<g>
		<path d="M32.86,188.23c0-2.81,1.86-4.44,4-4.44c1.1,0,1.98,0.52,2.55,1.1l-1.01,1.23c-0.43-0.4-0.88-0.67-1.5-0.67
			c-1.16,0-2.08,1.02-2.08,2.72c0,1.74,0.81,2.75,2.05,2.75c0.7,0,1.24-0.34,1.66-0.79l1.01,1.2c-0.7,0.82-1.64,1.24-2.74,1.24
			C34.65,192.57,32.86,191.08,32.86,188.23z"/>
		<path d="M40.29,189.19c0-2.14,1.51-3.38,3.14-3.38s3.14,1.24,3.14,3.38c0,2.14-1.51,3.38-3.14,3.38S40.29,191.33,40.29,189.19z
			 M44.62,189.19c0-1.12-0.39-1.84-1.18-1.84s-1.18,0.72-1.18,1.84s0.39,1.84,1.18,1.84S44.62,190.31,44.62,189.19z"/>
		<path d="M47.88,190.41v-7.1h1.91v7.18c0,0.41,0.19,0.54,0.35,0.54c0.07,0,0.13,0,0.23-0.03l0.23,1.41
			c-0.21,0.09-0.52,0.16-0.96,0.16C48.33,192.57,47.88,191.72,47.88,190.41z"/>
		<path d="M51.6,190.41v-7.1h1.91v7.18c0,0.41,0.19,0.54,0.35,0.54c0.07,0,0.13,0,0.23-0.03l0.23,1.41
			c-0.21,0.09-0.52,0.16-0.96,0.16C52.05,192.57,51.6,191.72,51.6,190.41z"/>
		<path d="M55.02,190.63c0-1.36,1.08-2.09,3.63-2.36c-0.04-0.56-0.32-0.93-1.02-0.93c-0.54,0-1.08,0.23-1.71,0.58l-0.68-1.25
			c0.82-0.5,1.74-0.85,2.75-0.85c1.65,0,2.56,0.94,2.56,2.92v3.69h-1.56l-0.14-0.66h-0.05c-0.54,0.48-1.15,0.82-1.88,0.82
			C55.77,192.57,55.02,191.71,55.02,190.63z M58.65,190.54v-1.13c-1.36,0.18-1.8,0.57-1.8,1.06c0,0.42,0.29,0.62,0.74,0.62
			C58.02,191.09,58.31,190.88,58.65,190.54z"/>
		<path d="M63.87,191.73h-0.05l-0.16,0.69h-1.5v-9.11h1.91v2.23l-0.05,0.99c0.49-0.44,1.1-0.71,1.71-0.71
			c1.56,0,2.53,1.29,2.53,3.27c0,2.22-1.32,3.49-2.71,3.49C64.98,192.57,64.38,192.28,63.87,191.73z M66.31,189.11
			c0-1.16-0.36-1.74-1.12-1.74c-0.39,0-0.74,0.18-1.11,0.58v2.65c0.34,0.3,0.71,0.41,1.03,0.41
			C65.78,191.01,66.31,190.45,66.31,189.11z"/>
		<path d="M69.24,189.19c0-2.14,1.51-3.38,3.14-3.38c1.63,0,3.14,1.24,3.14,3.38c0,2.14-1.51,3.38-3.14,3.38
			C70.75,192.57,69.24,191.33,69.24,189.19z M73.57,189.19c0-1.12-0.39-1.84-1.18-1.84c-0.79,0-1.18,0.72-1.18,1.84
			s0.39,1.84,1.18,1.84C73.18,191.03,73.57,190.31,73.57,189.19z"/>
		<path d="M76.83,185.97h1.56l0.14,1.13h0.05c0.47-0.86,1.17-1.28,1.83-1.28c0.37,0,0.58,0.05,0.77,0.13l-0.32,1.65
			c-0.23-0.06-0.42-0.1-0.7-0.1c-0.49,0-1.08,0.31-1.42,1.19v3.74h-1.91V185.97z"/>
		<path d="M81.71,190.63c0-1.36,1.08-2.09,3.63-2.36c-0.04-0.56-0.32-0.93-1.02-0.93c-0.54,0-1.08,0.23-1.71,0.58l-0.68-1.25
			c0.82-0.5,1.74-0.85,2.75-0.85c1.65,0,2.56,0.94,2.56,2.92v3.69h-1.56l-0.14-0.66h-0.05c-0.54,0.48-1.15,0.82-1.88,0.82
			C82.46,192.57,81.71,191.71,81.71,190.63z M85.34,190.54v-1.13c-1.36,0.18-1.8,0.57-1.8,1.06c0,0.42,0.29,0.62,0.74,0.62
			C84.71,191.09,85,190.88,85.34,190.54z"/>
		<path d="M89.12,190.07v-2.6h-0.88v-1.43l0.99-0.07l0.22-1.71h1.58v1.71h1.55v1.5h-1.55v2.58c0,0.73,0.33,1.02,0.83,1.02
			c0.21,0,0.44-0.06,0.61-0.12l0.3,1.39c-0.34,0.11-0.81,0.23-1.43,0.23C89.75,192.57,89.12,191.57,89.12,190.07z"/>
		<path d="M93.69,184.02c0-0.59,0.46-1,1.11-1c0.64,0,1.11,0.41,1.11,1c0,0.58-0.46,1-1.11,1C94.15,185.02,93.69,184.6,93.69,184.02
			z M93.84,185.97h1.91v6.45h-1.91V185.97z"/>
		<path d="M96.74,185.97h1.92l0.84,3.04c0.17,0.64,0.33,1.31,0.5,1.98h0.05c0.17-0.67,0.33-1.34,0.5-1.98l0.84-3.04h1.83l-2.1,6.45
			h-2.2L96.74,185.97z"/>
		<path d="M103.85,189.19c0-2.09,1.49-3.38,3.04-3.38c1.84,0,2.75,1.34,2.75,3.1c0,0.34-0.04,0.69-0.08,0.84h-3.86
			c0.17,0.94,0.81,1.36,1.67,1.36c0.49,0,0.93-0.15,1.39-0.42l0.63,1.15c-0.66,0.46-1.52,0.73-2.29,0.73
			C105.27,192.57,103.85,191.33,103.85,189.19z M108.01,188.49c0-0.71-0.31-1.22-1.07-1.22c-0.6,0-1.13,0.41-1.26,1.22H108.01z"/>
		<path d="M113.72,183.94h3.05c1.8,0,3.27,0.62,3.27,2.64c0,1.95-1.47,2.79-3.27,2.79h-1.14v3.05h-1.92V183.94z M116.61,187.85
			c1.01,0,1.55-0.43,1.55-1.26c0-0.84-0.54-1.12-1.55-1.12h-0.98v2.38H116.61z M116.42,188.86l1.33-1.23l2.7,4.78h-2.14
			L116.42,188.86z"/>
		<path d="M121.15,189.19c0-2.09,1.49-3.38,3.04-3.38c1.84,0,2.75,1.34,2.75,3.1c0,0.34-0.04,0.69-0.08,0.84H123
			c0.17,0.94,0.81,1.36,1.67,1.36c0.49,0,0.93-0.15,1.39-0.42l0.63,1.15c-0.66,0.46-1.52,0.73-2.29,0.73
			C122.58,192.57,121.15,191.33,121.15,189.19z M125.31,188.49c0-0.71-0.31-1.22-1.07-1.22c-0.6,0-1.13,0.41-1.26,1.22H125.31z"/>
		<path d="M127.69,191.67l0.86-1.19c0.58,0.44,1.12,0.68,1.66,0.68c0.57,0,0.81-0.22,0.81-0.55c0-0.42-0.64-0.62-1.3-0.88
			c-0.79-0.31-1.71-0.83-1.71-1.9c0-1.2,0.98-2.02,2.46-2.02c0.99,0,1.72,0.4,2.27,0.82l-0.86,1.15c-0.46-0.33-0.91-0.55-1.36-0.55
			c-0.49,0-0.74,0.19-0.74,0.52c0,0.41,0.6,0.57,1.27,0.81c0.82,0.3,1.74,0.76,1.74,1.94c0,1.17-0.92,2.08-2.65,2.08
			C129.32,192.57,128.34,192.2,127.69,191.67z"/>
		<path d="M133.64,189.19c0-2.09,1.49-3.38,3.04-3.38c1.84,0,2.75,1.34,2.75,3.1c0,0.34-0.04,0.69-0.08,0.84h-3.86
			c0.17,0.94,0.81,1.36,1.67,1.36c0.49,0,0.93-0.15,1.39-0.42l0.63,1.15c-0.66,0.46-1.52,0.73-2.29,0.73
			C135.07,192.57,133.64,191.33,133.64,189.19z M137.8,188.49c0-0.71-0.31-1.22-1.07-1.22c-0.6,0-1.12,0.41-1.25,1.22H137.8z"/>
		<path d="M140.46,190.63c0-1.36,1.08-2.09,3.63-2.36c-0.04-0.56-0.32-0.93-1.02-0.93c-0.54,0-1.08,0.23-1.71,0.58l-0.68-1.25
			c0.82-0.5,1.74-0.85,2.75-0.85c1.65,0,2.56,0.94,2.56,2.92v3.69h-1.56l-0.14-0.66h-0.05c-0.54,0.48-1.15,0.82-1.88,0.82
			C141.2,192.57,140.46,191.71,140.46,190.63z M144.09,190.54v-1.13c-1.36,0.18-1.8,0.57-1.8,1.06c0,0.42,0.29,0.62,0.74,0.62
			C143.46,191.09,143.75,190.88,144.09,190.54z"/>
		<path d="M147.6,185.97h1.56l0.14,1.13h0.05c0.47-0.86,1.17-1.28,1.83-1.28c0.37,0,0.58,0.05,0.77,0.13l-0.32,1.65
			c-0.23-0.06-0.42-0.1-0.7-0.1c-0.49,0-1.08,0.31-1.42,1.19v3.74h-1.91V185.97z"/>
		<path d="M152.4,189.19c0-2.14,1.58-3.38,3.36-3.38c0.79,0,1.4,0.28,1.88,0.69l-0.9,1.23c-0.31-0.26-0.57-0.38-0.88-0.38
			c-0.92,0-1.51,0.72-1.51,1.84s0.62,1.84,1.45,1.84c0.42,0,0.83-0.21,1.16-0.48l0.75,1.25c-0.63,0.55-1.43,0.77-2.13,0.77
			C153.79,192.57,152.4,191.33,152.4,189.19z"/>
		<path d="M158.85,183.31h1.91v2.23l-0.09,1.17c0.48-0.44,1.11-0.89,1.99-0.89c1.4,0,2,0.99,2,2.6v4h-1.91v-3.76
			c0-0.93-0.25-1.22-0.8-1.22c-0.48,0-0.77,0.22-1.19,0.63v4.35h-1.91V183.31z"/>
		<path d="M169.03,183.94h5.31v1.61h-3.39v1.7h2.89v1.61h-2.89v1.95h3.52v1.61h-5.44V183.94z"/>
		<path d="M176.25,190.07v-2.6h-0.88v-1.43l0.99-0.07l0.22-1.71h1.58v1.71h1.55v1.5h-1.55v2.58c0,0.73,0.33,1.02,0.83,1.02
			c0.21,0,0.44-0.06,0.61-0.12l0.3,1.39c-0.34,0.11-0.81,0.23-1.43,0.23C176.89,192.57,176.25,191.57,176.25,190.07z"/>
		<path d="M180.97,183.31h1.91v2.23l-0.09,1.17c0.48-0.44,1.11-0.89,1.99-0.89c1.4,0,2,0.99,2,2.6v4h-1.91v-3.76
			c0-0.93-0.25-1.22-0.8-1.22c-0.48,0-0.77,0.22-1.19,0.63v4.35h-1.91V183.31z"/>
		<path d="M188.25,184.02c0-0.59,0.47-1,1.11-1s1.11,0.41,1.11,1c0,0.58-0.47,1-1.11,1S188.25,184.6,188.25,184.02z M188.4,185.97
			h1.91v6.45h-1.91V185.97z"/>
		<path d="M191.61,189.19c0-2.14,1.58-3.38,3.36-3.38c0.79,0,1.4,0.28,1.88,0.69l-0.9,1.23c-0.31-0.26-0.57-0.38-0.88-0.38
			c-0.92,0-1.51,0.72-1.51,1.84s0.61,1.84,1.45,1.84c0.42,0,0.83-0.21,1.16-0.48l0.75,1.25c-0.63,0.55-1.43,0.77-2.13,0.77
			C193,192.57,191.61,191.33,191.61,189.19z"/>
		<path d="M197.49,191.67l0.86-1.19c0.58,0.44,1.12,0.68,1.66,0.68c0.57,0,0.82-0.22,0.82-0.55c0-0.42-0.64-0.62-1.3-0.88
			c-0.79-0.31-1.71-0.83-1.71-1.9c0-1.2,0.98-2.02,2.46-2.02c0.99,0,1.72,0.4,2.27,0.82l-0.86,1.15c-0.46-0.33-0.91-0.55-1.36-0.55
			c-0.49,0-0.74,0.19-0.74,0.52c0,0.41,0.6,0.57,1.27,0.81c0.82,0.3,1.74,0.76,1.74,1.94c0,1.17-0.92,2.08-2.65,2.08
			C199.11,192.57,198.14,192.2,197.49,191.67z"/>
		<path d="M206.57,183.94h5.31v1.61h-3.39v1.7h2.89v1.61h-2.89v1.95h3.52v1.61h-5.44V183.94z"/>
		<path d="M213.21,189.19c0-2.11,1.32-3.38,2.68-3.38c0.71,0,1.15,0.26,1.58,0.67l-0.07-0.98v-2.2h1.91v9.11h-1.56l-0.14-0.64h-0.05
			c-0.46,0.46-1.09,0.8-1.72,0.8C214.24,192.57,213.21,191.3,213.21,189.19z M217.39,190.43v-2.65c-0.34-0.3-0.72-0.41-1.07-0.41
			c-0.62,0-1.16,0.57-1.16,1.8c0,1.27,0.44,1.84,1.18,1.84C216.75,191.01,217.08,190.85,217.39,190.43z"/>
		<path d="M220.93,189.97v-4h1.91v3.76c0,0.93,0.25,1.22,0.8,1.22c0.48,0,0.77-0.2,1.15-0.71v-4.27h1.91v6.45h-1.56l-0.14-0.89
			h-0.05c-0.54,0.64-1.15,1.05-2.03,1.05C221.53,192.57,220.93,191.58,220.93,189.97z"/>
		<path d="M228,189.19c0-2.14,1.58-3.38,3.36-3.38c0.79,0,1.4,0.28,1.88,0.69l-0.9,1.23c-0.31-0.26-0.57-0.38-0.88-0.38
			c-0.92,0-1.51,0.72-1.51,1.84s0.61,1.84,1.45,1.84c0.42,0,0.83-0.21,1.16-0.48l0.75,1.25c-0.63,0.55-1.43,0.77-2.13,0.77
			C229.39,192.57,228,191.33,228,189.19z"/>
		<path d="M234.15,190.63c0-1.36,1.08-2.09,3.63-2.36c-0.04-0.56-0.32-0.93-1.02-0.93c-0.54,0-1.08,0.23-1.71,0.58l-0.68-1.25
			c0.82-0.5,1.74-0.85,2.75-0.85c1.65,0,2.56,0.94,2.56,2.92v3.69h-1.56l-0.14-0.66h-0.05c-0.54,0.48-1.15,0.82-1.88,0.82
			C234.89,192.57,234.15,191.71,234.15,190.63z M237.78,190.54v-1.13c-1.36,0.18-1.8,0.57-1.8,1.06c0,0.42,0.29,0.62,0.74,0.62
			C237.15,191.09,237.44,190.88,237.78,190.54z"/>
		<path d="M241.55,190.07v-2.6h-0.88v-1.43l0.99-0.07l0.22-1.71h1.58v1.71h1.55v1.5h-1.55v2.58c0,0.73,0.33,1.02,0.83,1.02
			c0.21,0,0.44-0.06,0.61-0.12l0.3,1.39c-0.34,0.11-0.81,0.23-1.43,0.23C242.19,192.57,241.55,191.57,241.55,190.07z"/>
		<path d="M246.12,184.02c0-0.59,0.47-1,1.11-1s1.11,0.41,1.11,1c0,0.58-0.47,1-1.11,1S246.12,184.6,246.12,184.02z M246.27,185.97
			h1.91v6.45h-1.91V185.97z"/>
		<path d="M249.49,189.19c0-2.14,1.51-3.38,3.14-3.38s3.14,1.24,3.14,3.38c0,2.14-1.51,3.38-3.14,3.38S249.49,191.33,249.49,189.19z
			 M253.81,189.19c0-1.12-0.39-1.84-1.18-1.84c-0.79,0-1.18,0.72-1.18,1.84s0.39,1.84,1.18,1.84
			C253.42,191.03,253.81,190.31,253.81,189.19z"/>
		<path d="M257.08,185.97h1.56l0.14,0.82h0.05c0.54-0.52,1.19-0.97,2.07-0.97c1.4,0,2,0.99,2,2.6v4h-1.91v-3.76
			c0-0.93-0.25-1.22-0.8-1.22c-0.48,0-0.77,0.22-1.19,0.63v4.35h-1.91V185.97z"/>
		<path d="M17.41,204.4c0-2.29,0.63-4.16,1.72-5.94l1.2,0.5c-0.95,1.68-1.37,3.6-1.37,5.44s0.42,3.76,1.37,5.44l-1.2,0.5
			C18.04,208.56,17.41,206.69,17.41,204.4z"/>
		<path d="M21.95,199.54h5.35v1.61h-3.43v1.96h2.93v1.61h-2.93v3.3h-1.92V199.54z"/>
		<path d="M28.23,204.79c0-2.14,1.51-3.38,3.14-3.38c1.63,0,3.14,1.24,3.14,3.38c0,2.14-1.51,3.38-3.14,3.38
			C29.74,208.17,28.23,206.93,28.23,204.79z M32.55,204.79c0-1.12-0.39-1.84-1.18-1.84c-0.79,0-1.18,0.72-1.18,1.84
			s0.39,1.84,1.18,1.84C32.16,206.63,32.55,205.91,32.55,204.79z"/>
		<path d="M35.82,201.57h1.56l0.14,1.13h0.05c0.47-0.86,1.17-1.28,1.83-1.28c0.37,0,0.58,0.05,0.77,0.13l-0.32,1.65
			c-0.23-0.06-0.42-0.1-0.7-0.1c-0.49,0-1.08,0.31-1.42,1.19v3.74h-1.91V201.57z"/>
		<path d="M40.99,201.57h1.56l0.14,0.83h0.05c0.53-0.53,1.11-0.98,1.96-0.98c0.91,0,1.45,0.39,1.78,1.08
			c0.57-0.59,1.17-1.08,2.02-1.08c1.39,0,2.02,0.99,2.02,2.6v4H48.6v-3.76c0-0.93-0.25-1.22-0.8-1.22c-0.32,0-0.69,0.2-1.1,0.63
			v4.35H44.8v-3.76c0-0.93-0.25-1.22-0.8-1.22c-0.32,0-0.69,0.2-1.1,0.63v4.35h-1.91V201.57z"/>
		<path d="M51.84,206.23c0-1.36,1.08-2.09,3.63-2.36c-0.04-0.56-0.32-0.93-1.02-0.93c-0.54,0-1.08,0.23-1.71,0.58l-0.68-1.25
			c0.82-0.5,1.74-0.85,2.75-0.85c1.65,0,2.56,0.94,2.56,2.92v3.69h-1.56l-0.14-0.66h-0.05c-0.54,0.48-1.15,0.82-1.88,0.82
			C52.58,208.17,51.84,207.31,51.84,206.23z M55.47,206.14v-1.13c-1.36,0.18-1.8,0.57-1.8,1.06c0,0.42,0.29,0.62,0.74,0.62
			C54.84,206.69,55.13,206.48,55.47,206.14z"/>
		<path d="M58.61,204.79c0-2.14,1.58-3.38,3.36-3.38c0.79,0,1.4,0.28,1.88,0.69l-0.9,1.23c-0.31-0.26-0.57-0.38-0.88-0.38
			c-0.92,0-1.51,0.72-1.51,1.84s0.61,1.84,1.44,1.84c0.42,0,0.83-0.21,1.16-0.47l0.75,1.25c-0.63,0.55-1.43,0.77-2.13,0.77
			C60,208.17,58.61,206.93,58.61,204.79z M60.35,210.36c1.02-0.06,1.33-0.21,1.33-0.57c0-0.26-0.21-0.44-0.99-0.55l0.63-1.27h1.11
			l-0.37,0.84c0.65,0.15,1,0.43,1,0.97c0,0.89-0.95,1.29-2.57,1.34L60.35,210.36z"/>
		<path d="M64.76,206.23c0-1.36,1.08-2.09,3.63-2.36c-0.04-0.56-0.32-0.93-1.02-0.93c-0.54,0-1.08,0.23-1.71,0.58l-0.68-1.25
			c0.82-0.5,1.74-0.85,2.75-0.85c1.65,0,2.56,0.94,2.56,2.92v3.69h-1.56l-0.14-0.66h-0.05c-0.54,0.48-1.15,0.82-1.88,0.82
			C65.5,208.17,64.76,207.31,64.76,206.23z M68.39,206.14v-1.13c-1.36,0.18-1.8,0.57-1.8,1.06c0,0.42,0.29,0.62,0.74,0.62
			C67.76,206.69,68.05,206.48,68.39,206.14z"/>
		<path d="M71.53,204.79c0-2.14,1.51-3.38,3.14-3.38c1.63,0,3.14,1.24,3.14,3.38c0,2.14-1.51,3.38-3.14,3.38
			C73.04,208.17,71.53,206.93,71.53,204.79z M75.86,204.79c0-1.12-0.39-1.84-1.18-1.84c-0.79,0-1.18,0.72-1.18,1.84
			s0.39,1.84,1.18,1.84C75.46,206.63,75.86,205.91,75.86,204.79z"/>
		<path d="M81.48,203.83c0-2.81,1.86-4.44,4-4.44c1.09,0,1.98,0.52,2.55,1.1l-1.01,1.23c-0.42-0.4-0.88-0.67-1.5-0.67
			c-1.16,0-2.08,1.02-2.08,2.72c0,1.74,0.81,2.75,2.05,2.75c0.7,0,1.24-0.34,1.66-0.79l1.01,1.2c-0.7,0.82-1.64,1.24-2.74,1.24
			C83.27,208.17,81.48,206.68,81.48,203.83z"/>
		<path d="M88.91,204.79c0-2.14,1.51-3.38,3.14-3.38s3.14,1.24,3.14,3.38c0,2.14-1.51,3.38-3.14,3.38S88.91,206.93,88.91,204.79z
			 M93.24,204.79c0-1.12-0.39-1.84-1.18-1.84s-1.18,0.72-1.18,1.84s0.39,1.84,1.18,1.84S93.24,205.91,93.24,204.79z"/>
		<path d="M96.5,206.01v-7.1h1.91v7.18c0,0.41,0.19,0.54,0.35,0.54c0.07,0,0.13,0,0.23-0.03l0.23,1.41
			c-0.21,0.09-0.52,0.16-0.96,0.16C96.95,208.17,96.5,207.32,96.5,206.01z"/>
		<path d="M99.92,206.23c0-1.36,1.08-2.09,3.63-2.36c-0.04-0.56-0.32-0.93-1.02-0.93c-0.54,0-1.08,0.23-1.71,0.58l-0.68-1.25
			c0.82-0.5,1.74-0.85,2.75-0.85c1.65,0,2.56,0.94,2.56,2.92v3.69h-1.56l-0.14-0.66h-0.05c-0.54,0.48-1.15,0.82-1.88,0.82
			C100.67,208.17,99.92,207.31,99.92,206.23z M103.56,206.14v-1.13c-1.36,0.18-1.8,0.57-1.8,1.06c0,0.42,0.29,0.62,0.74,0.62
			C102.93,206.69,103.22,206.48,103.56,206.14z"/>
		<path d="M108.77,207.33h-0.05l-0.16,0.69h-1.5v-9.11h1.91v2.22l-0.05,0.99c0.49-0.44,1.1-0.71,1.71-0.71
			c1.56,0,2.53,1.29,2.53,3.27c0,2.22-1.32,3.49-2.71,3.49C109.88,208.17,109.28,207.88,108.77,207.33z M111.21,204.71
			c0-1.16-0.36-1.74-1.12-1.74c-0.39,0-0.74,0.18-1.11,0.58v2.65c0.34,0.3,0.71,0.41,1.03,0.41
			C110.68,206.61,111.21,206.04,111.21,204.71z"/>
		<path d="M114.14,204.79c0-2.14,1.51-3.38,3.14-3.38c1.63,0,3.14,1.24,3.14,3.38c0,2.14-1.51,3.38-3.14,3.38
			C115.65,208.17,114.14,206.93,114.14,204.79z M118.47,204.79c0-1.12-0.39-1.84-1.18-1.84c-0.79,0-1.18,0.72-1.18,1.84
			s0.39,1.84,1.18,1.84C118.08,206.63,118.47,205.91,118.47,204.79z"/>
		<path d="M121.73,201.57h1.56l0.14,1.13h0.05c0.47-0.86,1.17-1.28,1.83-1.28c0.37,0,0.58,0.05,0.77,0.13l-0.32,1.65
			c-0.23-0.06-0.42-0.1-0.7-0.1c-0.49,0-1.08,0.31-1.42,1.19v3.74h-1.91V201.57z"/>
		<path d="M126.61,206.23c0-1.36,1.08-2.09,3.63-2.36c-0.04-0.56-0.32-0.93-1.02-0.93c-0.54,0-1.08,0.23-1.71,0.58l-0.68-1.25
			c0.82-0.5,1.74-0.85,2.75-0.85c1.65,0,2.56,0.94,2.56,2.92v3.69h-1.56l-0.14-0.66h-0.05c-0.54,0.48-1.15,0.82-1.88,0.82
			C127.36,208.17,126.61,207.31,126.61,206.23z M130.24,206.14v-1.13c-1.36,0.18-1.8,0.57-1.8,1.06c0,0.42,0.29,0.62,0.74,0.62
			C129.61,206.69,129.9,206.48,130.24,206.14z"/>
		<path d="M134.02,205.67v-2.61h-0.88v-1.43l0.99-0.07l0.22-1.71h1.58v1.71h1.55v1.5h-1.55v2.58c0,0.73,0.33,1.02,0.83,1.02
			c0.21,0,0.44-0.06,0.61-0.12l0.3,1.39c-0.34,0.11-0.81,0.23-1.43,0.23C134.65,208.17,134.02,207.17,134.02,205.67z"/>
		<path d="M138.59,199.62c0-0.59,0.46-1,1.11-1c0.64,0,1.11,0.41,1.11,1c0,0.58-0.46,1-1.11,1
			C139.05,200.62,138.59,200.21,138.59,199.62z M138.74,201.57h1.91v6.45h-1.91V201.57z"/>
		<path d="M141.64,201.57h1.92l0.84,3.04c0.17,0.64,0.33,1.31,0.5,1.98h0.05c0.17-0.67,0.33-1.34,0.5-1.98l0.84-3.04h1.83l-2.1,6.45
			h-2.2L141.64,201.57z"/>
		<path d="M148.83,206.23c0-1.36,1.08-2.09,3.63-2.36c-0.04-0.56-0.32-0.93-1.02-0.93c-0.54,0-1.08,0.23-1.71,0.58l-0.68-1.25
			c0.82-0.5,1.74-0.85,2.75-0.85c1.65,0,2.56,0.94,2.56,2.92v3.69h-1.56l-0.14-0.66h-0.05c-0.54,0.48-1.15,0.82-1.88,0.82
			C149.58,208.17,148.83,207.31,148.83,206.23z M152.46,206.14v-1.13c-1.36,0.18-1.8,0.57-1.8,1.06c0,0.42,0.29,0.62,0.74,0.62
			C151.83,206.69,152.12,206.48,152.46,206.14z"/>
		<path d="M158.2,204.79c0-2.09,1.49-3.38,3.04-3.38c1.84,0,2.75,1.33,2.75,3.1c0,0.34-0.04,0.69-0.08,0.84h-3.86
			c0.17,0.94,0.81,1.37,1.67,1.37c0.49,0,0.93-0.15,1.4-0.42l0.63,1.15c-0.66,0.46-1.52,0.73-2.29,0.73
			C159.63,208.17,158.2,206.93,158.2,204.79z M162.36,204.09c0-0.71-0.31-1.22-1.07-1.22c-0.6,0-1.12,0.41-1.26,1.22H162.36z"/>
		<path d="M165.31,201.57h1.56l0.14,0.83h0.05c0.53-0.53,1.11-0.98,1.96-0.98c0.91,0,1.45,0.39,1.78,1.08
			c0.57-0.59,1.17-1.08,2.03-1.08c1.39,0,2.02,0.99,2.02,2.6v4h-1.91v-3.76c0-0.93-0.25-1.22-0.8-1.22c-0.32,0-0.69,0.2-1.1,0.63
			v4.35h-1.91v-3.76c0-0.93-0.25-1.22-0.8-1.22c-0.32,0-0.69,0.2-1.1,0.63v4.35h-1.91V201.57z"/>
		<path d="M179.21,199.54h5.31v1.61h-3.39v1.7h2.89v1.61h-2.89v1.95h3.52v1.61h-5.44V199.54z"/>
		<path d="M186.43,205.67v-2.61h-0.88v-1.43l0.99-0.07l0.22-1.71h1.58v1.71h1.55v1.5h-1.55v2.58c0,0.73,0.33,1.02,0.83,1.02
			c0.21,0,0.44-0.06,0.61-0.12l0.3,1.39c-0.34,0.11-0.81,0.23-1.43,0.23C187.07,208.17,186.43,207.17,186.43,205.67z"/>
		<path d="M191,199.62c0-0.59,0.47-1,1.11-1s1.11,0.41,1.11,1c0,0.58-0.47,1-1.11,1S191,200.21,191,199.62z M191.15,201.57h1.91
			v6.45h-1.91V201.57z"/>
		<path d="M194.37,204.79c0-2.14,1.58-3.38,3.36-3.38c0.79,0,1.4,0.28,1.88,0.69l-0.9,1.23c-0.31-0.26-0.57-0.38-0.88-0.38
			c-0.92,0-1.51,0.72-1.51,1.84s0.61,1.84,1.45,1.84c0.42,0,0.83-0.21,1.16-0.47l0.75,1.25c-0.63,0.55-1.43,0.77-2.13,0.77
			C195.76,208.17,194.37,206.93,194.37,204.79z"/>
		<path d="M200.52,206.23c0-1.36,1.08-2.09,3.63-2.36c-0.04-0.56-0.32-0.93-1.02-0.93c-0.54,0-1.08,0.23-1.71,0.58l-0.68-1.25
			c0.82-0.5,1.74-0.85,2.75-0.85c1.65,0,2.56,0.94,2.56,2.92v3.69h-1.56l-0.14-0.66h-0.05c-0.54,0.48-1.15,0.82-1.88,0.82
			C201.26,208.17,200.52,207.31,200.52,206.23z M204.15,206.14v-1.13c-1.36,0.18-1.8,0.57-1.8,1.06c0,0.42,0.29,0.62,0.74,0.62
			C203.52,206.69,203.81,206.48,204.15,206.14z"/>
		<path d="M210.26,201.57h1.56l0.14,0.82h0.05c0.54-0.52,1.19-0.97,2.07-0.97c1.4,0,2,0.99,2,2.6v4h-1.91v-3.76
			c0-0.93-0.25-1.22-0.8-1.22c-0.48,0-0.77,0.22-1.19,0.63v4.35h-1.91V201.57z"/>
		<path d="M217.4,206.23c0-1.36,1.08-2.09,3.63-2.36c-0.04-0.56-0.32-0.93-1.02-0.93c-0.54,0-1.08,0.23-1.71,0.58l-0.68-1.25
			c0.82-0.5,1.74-0.85,2.75-0.85c1.65,0,2.56,0.94,2.56,2.92v3.69h-1.56l-0.14-0.66h-0.05c-0.54,0.48-1.15,0.82-1.88,0.82
			C218.15,208.17,217.4,207.31,217.4,206.23z M221.04,206.14v-1.13c-1.36,0.18-1.8,0.57-1.8,1.06c0,0.42,0.29,0.62,0.74,0.62
			C220.41,206.69,220.7,206.48,221.04,206.14z"/>
		<path d="M227.31,199.54h2.91c1.86,0,3.37,0.67,3.37,2.73c0,1.99-1.52,2.87-3.32,2.87h-1.05v2.88h-1.92V199.54z M230.16,203.62
			c1.05,0,1.55-0.47,1.55-1.35c0-0.89-0.57-1.21-1.6-1.21h-0.88v2.56H230.16z"/>
		<path d="M234.52,204.79c0-2.09,1.49-3.38,3.04-3.38c1.84,0,2.75,1.33,2.75,3.1c0,0.34-0.04,0.69-0.08,0.84h-3.86
			c0.17,0.94,0.81,1.37,1.67,1.37c0.49,0,0.93-0.15,1.4-0.42l0.63,1.15c-0.66,0.46-1.52,0.73-2.29,0.73
			C235.95,208.17,234.52,206.93,234.52,204.79z M238.68,204.09c0-0.71-0.31-1.22-1.07-1.22c-0.6,0-1.12,0.41-1.26,1.22H238.68z"/>
		<path d="M241.06,207.27l0.86-1.19c0.58,0.44,1.12,0.68,1.66,0.68c0.57,0,0.82-0.22,0.82-0.55c0-0.42-0.64-0.62-1.3-0.88
			c-0.79-0.31-1.71-0.83-1.71-1.9c0-1.2,0.98-2.02,2.46-2.02c0.99,0,1.72,0.4,2.27,0.82l-0.86,1.15c-0.46-0.33-0.91-0.55-1.36-0.55
			c-0.49,0-0.74,0.19-0.74,0.52c0,0.41,0.6,0.57,1.27,0.81c0.82,0.3,1.74,0.76,1.74,1.94c0,1.17-0.92,2.08-2.65,2.08
			C242.69,208.17,241.71,207.8,241.06,207.27z"/>
		<path d="M251.25,208.44l0.07-0.99c-0.42,0.42-1.04,0.71-1.62,0.71c-1.6,0-2.64-1.27-2.64-3.38c0-2.11,1.32-3.38,2.68-3.38
			c0.7,0,1.21,0.24,1.72,0.79h0.05l0.16-0.64h1.49v8.84h-1.91V208.44z M251.25,206.03v-2.65c-0.34-0.3-0.72-0.41-1.07-0.41
			c-0.62,0-1.16,0.57-1.16,1.8c0,1.27,0.44,1.84,1.18,1.84C250.6,206.61,250.93,206.45,251.25,206.03z"/>
		<path d="M254.78,205.57v-4h1.91v3.76c0,0.93,0.25,1.22,0.8,1.22c0.48,0,0.77-0.2,1.15-0.71v-4.27h1.91v6.45h-1.56l-0.14-0.89
			h-0.05c-0.54,0.64-1.15,1.05-2.03,1.05C255.38,208.17,254.78,207.18,254.78,205.57z"/>
		<path d="M262.08,199.62c0-0.59,0.47-1,1.11-1s1.11,0.41,1.11,1c0,0.58-0.47,1-1.11,1S262.08,200.21,262.08,199.62z M262.22,201.57
			h1.91v6.45h-1.91V201.57z"/>
		<path d="M265.24,207.27l0.86-1.19c0.58,0.44,1.12,0.68,1.66,0.68c0.57,0,0.82-0.22,0.82-0.55c0-0.42-0.64-0.62-1.3-0.88
			c-0.79-0.31-1.71-0.83-1.71-1.9c0-1.2,0.98-2.02,2.46-2.02c0.99,0,1.72,0.4,2.27,0.82l-0.86,1.15c-0.46-0.33-0.91-0.55-1.36-0.55
			c-0.49,0-0.74,0.19-0.74,0.52c0,0.41,0.6,0.57,1.27,0.81c0.82,0.3,1.74,0.76,1.74,1.94c0,1.17-0.92,2.08-2.65,2.08
			C266.87,208.17,265.89,207.8,265.24,207.27z"/>
		<path d="M271.27,206.23c0-1.36,1.08-2.09,3.63-2.36c-0.04-0.56-0.32-0.93-1.02-0.93c-0.54,0-1.08,0.23-1.71,0.58l-0.68-1.25
			c0.82-0.5,1.74-0.85,2.75-0.85c1.65,0,2.56,0.94,2.56,2.92v3.69h-1.56l-0.14-0.66h-0.05c-0.54,0.48-1.15,0.82-1.88,0.82
			C272.02,208.17,271.27,207.31,271.27,206.23z M274.91,206.14v-1.13c-1.36,0.18-1.8,0.57-1.8,1.06c0,0.42,0.29,0.62,0.74,0.62
			C274.28,206.69,274.57,206.48,274.91,206.14z"/>
		<path d="M278.21,209.84c0.95-1.68,1.37-3.6,1.37-5.44s-0.42-3.76-1.37-5.44l1.2-0.5c1.09,1.78,1.72,3.65,1.72,5.94
			s-0.63,4.16-1.72,5.94L278.21,209.84z"/>
	</g>
</g>
<g>
	<circle class="st0" cx="124.3" cy="124.16" r="54.34"/>
	<circle class="st1" cx="124.51" cy="123.95" r="54.34"/>
	<circle class="st2" cx="124.72" cy="123.74" r="54.34"/>
	<circle class="st3" cx="124.94" cy="123.52" r="54.34"/>
	<circle class="st4" cx="125.15" cy="123.31" r="54.34"/>
	<circle class="st5" cx="125.36" cy="123.1" r="54.34"/>
	<circle class="st6" cx="125.58" cy="122.88" r="54.34"/>
	<circle class="st7" cx="125.79" cy="122.67" r="54.34"/>
	<circle class="st8" cx="126" cy="122.46" r="54.34"/>
	<circle class="st9" cx="126.22" cy="122.24" r="54.34"/>
	<circle class="st10" cx="126.43" cy="122.03" r="54.34"/>
	<circle class="st11" cx="126.64" cy="121.82" r="54.34"/>
	<circle class="st12" cx="126.86" cy="121.6" r="54.34"/>
	<circle class="st13" cx="127.07" cy="121.39" r="54.34"/>
	<circle class="st14" cx="127.28" cy="121.18" r="54.34"/>
	<circle class="st15" cx="127.5" cy="120.96" r="54.34"/>
	<circle class="st16" cx="127.71" cy="120.75" r="54.34"/>
	<circle class="st17" cx="127.92" cy="120.54" r="54.34"/>
	<circle class="st18" cx="128.14" cy="120.32" r="54.34"/>
	<circle class="st19" cx="128.35" cy="120.11" r="54.34"/>
	<circle class="st20" cx="128.56" cy="119.9" r="54.34"/>
	<circle class="st21" cx="128.78" cy="119.68" r="54.34"/>
	<circle class="st22" cx="128.99" cy="119.47" r="54.34"/>
	<circle class="st23" cx="129.2" cy="119.26" r="54.34"/>
	<circle class="st24" cx="129.42" cy="119.04" r="54.34"/>
	<circle class="st25" cx="129.63" cy="118.83" r="54.34"/>
	<circle class="st26" cx="129.84" cy="118.62" r="54.34"/>
	<circle class="st27" cx="130.06" cy="118.4" r="54.34"/>
	<circle class="st28" cx="130.27" cy="118.19" r="54.34"/>
	<circle class="st29" cx="130.48" cy="117.98" r="54.34"/>
	<circle class="st30" cx="130.7" cy="117.76" r="54.34"/>
	<circle class="st31" cx="130.91" cy="117.55" r="54.34"/>
	<circle class="st32" cx="131.12" cy="117.34" r="54.34"/>
	<circle class="st33" cx="131.34" cy="117.12" r="54.34"/>
	<circle class="st34" cx="131.55" cy="116.91" r="54.34"/>
	<circle class="st35" cx="131.76" cy="116.7" r="54.34"/>
	<circle class="st36" cx="131.98" cy="116.48" r="54.34"/>
	<circle class="st37" cx="132.19" cy="116.27" r="54.34"/>
	<circle class="st38" cx="132.4" cy="116.06" r="54.34"/>
	<circle class="st39" cx="132.62" cy="115.84" r="54.34"/>
	<circle class="st40" cx="132.83" cy="115.63" r="54.34"/>
	<circle class="st41" cx="133.04" cy="115.42" r="54.34"/>
	<circle class="st42" cx="133.26" cy="115.2" r="54.34"/>
	<circle class="st43" cx="133.47" cy="114.99" r="54.34"/>
	<circle class="st44" cx="133.68" cy="114.77" r="54.34"/>
	<circle class="st45" cx="133.9" cy="114.56" r="54.34"/>
	<circle class="st46" cx="134.11" cy="114.35" r="54.34"/>
	<circle class="st47" cx="134.32" cy="114.13" r="54.34"/>
	<circle class="st48" cx="134.54" cy="113.92" r="54.34"/>
	<circle class="st49" cx="134.75" cy="113.71" r="54.34"/>
	<circle class="st50" cx="134.96" cy="113.49" r="54.34"/>
	<circle class="st51" cx="135.18" cy="113.28" r="54.34"/>
	<circle class="st52" cx="135.39" cy="113.07" r="54.34"/>
	<circle class="st53" cx="135.6" cy="112.85" r="54.34"/>
	<circle class="st54" cx="135.82" cy="112.64" r="54.34"/>
	<circle class="st55" cx="136.03" cy="112.43" r="54.34"/>
	<circle class="st56" cx="136.24" cy="112.21" r="54.34"/>
	<circle class="st57" cx="136.46" cy="112" r="54.34"/>
	<circle class="st58" cx="136.67" cy="111.79" r="54.34"/>
	<circle class="st59" cx="136.88" cy="111.57" r="54.34"/>
	<circle class="st60" cx="137.1" cy="111.36" r="54.34"/>
	<circle class="st61" cx="137.31" cy="111.15" r="54.34"/>
	<circle class="st62" cx="137.52" cy="110.93" r="54.34"/>
	<circle class="st63" cx="137.74" cy="110.72" r="54.34"/>
	<circle class="st64" cx="137.95" cy="110.51" r="54.34"/>
	<circle class="st65" cx="138.16" cy="110.29" r="54.34"/>
	<circle class="st66" cx="138.38" cy="110.08" r="54.34"/>
	<circle class="st67" cx="138.59" cy="109.87" r="54.34"/>
	<circle class="st68" cx="138.8" cy="109.65" r="54.34"/>
	<circle class="st69" cx="139.02" cy="109.44" r="54.34"/>
	<circle class="st70" cx="139.23" cy="109.23" r="54.34"/>
	<circle class="st71" cx="139.44" cy="109.01" r="54.34"/>
	<circle class="st72" cx="139.66" cy="108.8" r="54.34"/>
	<circle class="st73" cx="139.87" cy="108.59" r="54.34"/>
	<circle class="st74" cx="140.08" cy="108.37" r="54.34"/>
	<circle class="st75" cx="140.3" cy="108.16" r="54.34"/>
	<circle class="st76" cx="140.51" cy="107.95" r="54.34"/>
	<circle class="st77" cx="140.72" cy="107.73" r="54.34"/>
	<circle class="st78" cx="140.94" cy="107.52" r="54.34"/>
	<circle class="st79" cx="141.15" cy="107.31" r="54.34"/>
	<circle class="st80" cx="141.37" cy="107.09" r="54.34"/>
	<circle class="st81" cx="141.58" cy="106.88" r="54.34"/>
	<circle class="st82" cx="141.79" cy="106.67" r="54.34"/>
	<circle class="st83" cx="142.01" cy="106.45" r="54.34"/>
	<circle class="st84" cx="142.22" cy="106.24" r="54.34"/>
	<circle class="st85" cx="142.43" cy="106.03" r="54.34"/>
	<circle class="st86" cx="142.65" cy="105.81" r="54.34"/>
	<circle class="st87" cx="142.86" cy="105.6" r="54.34"/>
	<circle class="st88" cx="143.07" cy="105.39" r="54.34"/>
	<circle class="st89" cx="143.29" cy="105.17" r="54.34"/>
	<circle class="st90" cx="143.5" cy="104.96" r="54.34"/>
	<circle class="st91" cx="143.71" cy="104.75" r="54.34"/>
	<circle class="st92" cx="143.93" cy="104.53" r="54.34"/>
	<circle class="st93" cx="144.14" cy="104.32" r="54.34"/>
	<circle class="st94" cx="144.35" cy="104.11" r="54.34"/>
	<circle class="st95" cx="144.57" cy="103.89" r="54.34"/>
	<circle class="st96" cx="144.78" cy="103.68" r="54.34"/>
	<circle class="st97" cx="144.99" cy="103.47" r="54.34"/>
	<circle class="st98" cx="145.21" cy="103.25" r="54.34"/>
	<circle class="st99" cx="145.42" cy="103.04" r="54.34"/>
	<circle class="st100" cx="145.63" cy="102.83" r="54.34"/>
	<circle class="st101" cx="145.85" cy="102.61" r="54.34"/>
	<circle class="st102" cx="146.06" cy="102.4" r="54.34"/>
	<circle class="st103" cx="146.27" cy="102.19" r="54.34"/>
	<circle class="st104" cx="146.49" cy="101.97" r="54.34"/>
	<circle class="st105" cx="146.7" cy="101.76" r="54.34"/>
	<circle class="st106" cx="146.91" cy="101.55" r="54.34"/>
	<circle class="st107" cx="147.13" cy="101.33" r="54.34"/>
	<circle class="st108" cx="147.34" cy="101.12" r="54.34"/>
	<circle class="st109" cx="147.55" cy="100.91" r="54.34"/>
	<circle class="st110" cx="147.77" cy="100.69" r="54.34"/>
	<circle class="st111" cx="147.98" cy="100.48" r="54.34"/>
	<circle class="st112" cx="148.19" cy="100.27" r="54.34"/>
	<circle class="st113" cx="148.41" cy="100.05" r="54.34"/>
	<circle class="st114" cx="148.62" cy="99.84" r="54.34"/>
	<circle class="st115" cx="148.83" cy="99.63" r="54.34"/>
	<circle class="st116" cx="149.05" cy="99.41" r="54.34"/>
	<circle class="st117" cx="149.26" cy="99.2" r="54.34"/>
	<circle class="st118" cx="149.47" cy="98.99" r="54.34"/>
	<circle class="st119" cx="149.69" cy="98.77" r="54.34"/>
	<circle class="st120" cx="149.9" cy="98.56" r="54.34"/>
	<circle class="st121" cx="150.11" cy="98.35" r="54.34"/>
	<circle class="st122" cx="150.33" cy="98.13" r="54.34"/>
	<circle class="st123" cx="150.54" cy="97.92" r="54.34"/>
	<circle class="st124" cx="150.75" cy="97.71" r="54.34"/>
	<circle class="st125" cx="150.97" cy="97.49" r="54.34"/>
	<circle class="st126" cx="151.18" cy="97.28" r="54.34"/>
	<circle class="st127" cx="151.39" cy="97.07" r="54.34"/>
	<circle class="st128" cx="151.61" cy="96.85" r="54.34"/>
</g>
<g>
	<g>
		<g>
			<defs>
				<circle id="SVGID_25_" cx="150.43" cy="96.66" r="56.89"/>
			</defs>
			<use xlink:href="#SVGID_25_"  style="overflow:visible;fill:#D8AB4C;"/>
			<clipPath id="SVGID_2_">
				<use xlink:href="#SVGID_25_"  style="overflow:visible;"/>
			</clipPath>
			<path class="st129" d="M89.35,85.28h75.91c6.26,0,11.38,5.12,11.38,11.38v0c0,6.26-5.12,11.38-11.38,11.38H89.35
				c-6.26,0-11.38-5.12-11.38-11.38v0C77.97,90.4,83.09,85.28,89.35,85.28z"/>
			<path class="st129" d="M63.43,130.79h85.67c6.26,0,11.38,5.12,11.38,11.38v0c0,6.26-5.12,11.38-11.38,11.38H63.43
				c-6.26,0-11.38-5.12-11.38-11.38v0C52.05,135.91,57.17,130.79,63.43,130.79z"/>
			<path class="st129" d="M92.63,108.03h78.77c6.26,0,11.38,5.12,11.38,11.38l0,0c0,6.26-5.12,11.38-11.38,11.38H92.63
				c-6.26,0-11.38-5.12-11.38-11.38l0,0C81.26,113.15,86.37,108.03,92.63,108.03z"/>
			<path class="st129" d="M104.2,39.77h48.31c6.26,0,11.38,5.12,11.38,11.38l0,0c0,6.26-5.12,11.38-11.38,11.38H104.2
				c-6.26,0-11.38-5.12-11.38-11.38l0,0C92.82,44.89,97.94,39.77,104.2,39.77z"/>
			<path class="st129" d="M96.85,62.52h43.48c6.26,0,11.38,5.12,11.38,11.38l0,0c0,6.26-5.12,11.38-11.38,11.38H96.85
				c-6.26,0-11.38-5.12-11.38-11.38l0,0C85.48,67.64,90.59,62.52,96.85,62.52z"/>
		</g>
		<path class="st151" d="M123.15,108.03h55.48c6.26,0,11.38,5.12,11.38,11.38v0c0,6.26-5.12,11.38-11.38,11.38h-55.48
			c-6.26,0-11.38-5.12-11.38-11.38v0C111.77,113.15,116.89,108.03,123.15,108.03z"/>
		<path class="st151" d="M142.33,62.52h36.31c6.26,0,11.38,5.12,11.38,11.38l0,0c0,6.26-5.12,11.38-11.38,11.38h-36.31
			c-6.26,0-11.38-5.12-11.38-11.38l0,0C130.95,67.64,136.07,62.52,142.33,62.52z"/>
	</g>
</g>
<g>
	<g>
		<path class="st131" d="M117.28,89.59h9.87v2.97h-6.34v3.63h5.41v2.97h-5.41v6.08h-3.54V89.59z"/>
		<path class="st131" d="M128.87,99.29c0-3.96,2.79-6.25,5.8-6.25c3.01,0,5.8,2.29,5.8,6.25c0,3.95-2.79,6.24-5.8,6.24
			C131.66,105.52,128.87,103.24,128.87,99.29z M136.85,99.29c0-2.06-0.72-3.4-2.18-3.4c-1.46,0-2.18,1.34-2.18,3.4
			c0,2.06,0.72,3.39,2.18,3.39C136.13,102.68,136.85,101.35,136.85,99.29z"/>
		<path class="st131" d="M142.44,97.5c0-5.19,3.43-8.2,7.38-8.2c2.02,0,3.65,0.95,4.71,2.03l-1.87,2.27
			c-0.78-0.73-1.63-1.25-2.76-1.25c-2.15,0-3.84,1.89-3.84,5.03c0,3.21,1.5,5.08,3.78,5.08c1.29,0,2.3-0.63,3.06-1.46l1.86,2.22
			c-1.3,1.51-3.03,2.3-5.05,2.3C145.75,105.52,142.44,102.77,142.44,97.5z"/>
		<path class="st131" d="M157.14,89.59h9.8v2.97h-6.27v3.14h5.33v2.97h-5.33v3.6h6.51v2.97h-10.04V89.59z"/>
		<path class="st131" d="M170.29,89.59h5.37c3.44,0,6.22,1.23,6.22,5.03c0,3.68-2.81,5.3-6.12,5.3h-1.93v5.31h-3.54V89.59z
			 M175.56,97.12c1.94,0,2.87-0.87,2.87-2.5c0-1.64-1.05-2.22-2.96-2.22h-1.63v4.72H175.56z"/>
	</g>
</g>
</svg>
