<?xml version="1.0" encoding="utf-8"?>
<!-- Generator: Adobe Illustrator 25.2.3, SVG Export Plug-In . SVG Version: 6.00 Build 0)  -->
<svg version="1.1" id="Layer_1" xmlns="http://www.w3.org/2000/svg" xmlns:xlink="http://www.w3.org/1999/xlink" x="0px" y="0px"
	 viewBox="0 0 300 251" style="enable-background:new 0 0 300 251;" xml:space="preserve">
<style type="text/css">
	.st0{opacity:0;fill:#FFFFFF;}
	.st1{opacity:7.812500e-03;fill:#FEFEFE;}
	.st2{opacity:0.0156;fill:#FDFDFD;}
	.st3{opacity:0.0234;fill:#FCFCFC;}
	.st4{opacity:0.0312;fill:#FBFBFB;}
	.st5{opacity:0.0391;fill:#FAFAFA;}
	.st6{opacity:0.0469;fill:#F9F9F9;}
	.st7{opacity:0.0547;fill:#F8F8F8;}
	.st8{opacity:0.0625;fill:#F7F7F7;}
	.st9{opacity:0.0703;fill:#F6F6F6;}
	.st10{opacity:0.0781;fill:#F5F5F5;}
	.st11{opacity:0.0859;fill:#F4F4F4;}
	.st12{opacity:0.0938;fill:#F3F3F3;}
	.st13{opacity:0.1016;fill:#F2F2F2;}
	.st14{opacity:0.1094;fill:#F1F1F1;}
	.st15{opacity:0.1172;fill:#F0F0F0;}
	.st16{opacity:0.125;fill:#EFEFEF;}
	.st17{opacity:0.1328;fill:#EEEEEE;}
	.st18{opacity:0.1406;fill:#EDEDED;}
	.st19{opacity:0.1484;fill:#ECECEC;}
	.st20{opacity:0.1562;fill:#EBEBEB;}
	.st21{opacity:0.1641;fill:#EAEAEA;}
	.st22{opacity:0.1719;fill:#E9E9E9;}
	.st23{opacity:0.1797;fill:#E8E8E8;}
	.st24{opacity:0.1875;fill:#E7E7E7;}
	.st25{opacity:0.1953;fill:#E6E6E6;}
	.st26{opacity:0.2031;fill:#E5E5E5;}
	.st27{opacity:0.2109;fill:#E4E4E4;}
	.st28{opacity:0.2188;fill:#E3E3E3;}
	.st29{opacity:0.2266;fill:#E2E2E2;}
	.st30{opacity:0.2344;fill:#E1E1E1;}
	.st31{opacity:0.2422;fill:#E0E0E0;}
	.st32{opacity:0.25;fill:#DFDFDF;}
	.st33{opacity:0.2578;fill:#DEDEDE;}
	.st34{opacity:0.2656;fill:#DDDDDD;}
	.st35{opacity:0.2734;fill:#DCDCDC;}
	.st36{opacity:0.2812;fill:#DBDBDB;}
	.st37{opacity:0.2891;fill:#DADADA;}
	.st38{opacity:0.2969;fill:#D9D9D9;}
	.st39{opacity:0.3047;fill:#D8D8D8;}
	.st40{opacity:0.3125;fill:#D7D7D7;}
	.st41{opacity:0.3203;fill:#D6D6D6;}
	.st42{opacity:0.3281;fill:#D5D5D5;}
	.st43{opacity:0.3359;fill:#D4D4D4;}
	.st44{opacity:0.3438;fill:#D3D3D3;}
	.st45{opacity:0.3516;fill:#D2D2D2;}
	.st46{opacity:0.3594;fill:#D1D1D1;}
	.st47{opacity:0.3672;fill:#D0D0D0;}
	.st48{opacity:0.375;fill:#CFCFCF;}
	.st49{opacity:0.3828;fill:#CECECE;}
	.st50{opacity:0.3906;fill:#CDCDCD;}
	.st51{opacity:0.3984;fill:#CCCCCC;}
	.st52{opacity:0.4062;fill:#CBCBCB;}
	.st53{opacity:0.4141;fill:#CACACA;}
	.st54{opacity:0.4219;fill:#C9C9C9;}
	.st55{opacity:0.4297;fill:#C8C8C8;}
	.st56{opacity:0.4375;fill:#C7C7C7;}
	.st57{opacity:0.4453;fill:#C6C6C6;}
	.st58{opacity:0.4531;fill:#C5C5C5;}
	.st59{opacity:0.4609;fill:#C4C4C4;}
	.st60{opacity:0.4688;fill:#C3C3C3;}
	.st61{opacity:0.4766;fill:#C2C2C2;}
	.st62{opacity:0.4844;fill:#C1C1C1;}
	.st63{opacity:0.4922;fill:#C0C0C0;}
	.st64{opacity:0.5;fill:#C0C0C0;}
	.st65{opacity:0.5078;fill:#BFBFBF;}
	.st66{opacity:0.5156;fill:#BEBEBE;}
	.st67{opacity:0.5234;fill:#BDBDBD;}
	.st68{opacity:0.5312;fill:#BCBCBC;}
	.st69{opacity:0.5391;fill:#BBBBBB;}
	.st70{opacity:0.5469;fill:#BABABA;}
	.st71{opacity:0.5547;fill:#B9B9B9;}
	.st72{opacity:0.5625;fill:#B8B8B8;}
	.st73{opacity:0.5703;fill:#B7B7B7;}
	.st74{opacity:0.5781;fill:#B6B6B6;}
	.st75{opacity:0.5859;fill:#B5B5B5;}
	.st76{opacity:0.5938;fill:#B4B4B4;}
	.st77{opacity:0.6016;fill:#B3B3B3;}
	.st78{opacity:0.6094;fill:#B2B2B2;}
	.st79{opacity:0.6172;fill:#B1B1B1;}
	.st80{opacity:0.625;fill:#B0B0B0;}
	.st81{opacity:0.6328;fill:#AFAFAF;}
	.st82{opacity:0.6406;fill:#AEAEAE;}
	.st83{opacity:0.6484;fill:#ADADAD;}
	.st84{opacity:0.6562;fill:#ACACAC;}
	.st85{opacity:0.6641;fill:#ABABAB;}
	.st86{opacity:0.6719;fill:#AAAAAA;}
	.st87{opacity:0.6797;fill:#A9A9A9;}
	.st88{opacity:0.6875;fill:#A8A8A8;}
	.st89{opacity:0.6953;fill:#A7A7A7;}
	.st90{opacity:0.7031;fill:#A6A6A6;}
	.st91{opacity:0.7109;fill:#A5A5A5;}
	.st92{opacity:0.7188;fill:#A4A4A4;}
	.st93{opacity:0.7266;fill:#A3A3A3;}
	.st94{opacity:0.7344;fill:#A2A2A2;}
	.st95{opacity:0.7422;fill:#A1A1A1;}
	.st96{opacity:0.75;fill:#A0A0A0;}
	.st97{opacity:0.7578;fill:#9F9F9F;}
	.st98{opacity:0.7656;fill:#9E9E9E;}
	.st99{opacity:0.7734;fill:#9D9D9D;}
	.st100{opacity:0.7812;fill:#9C9C9C;}
	.st101{opacity:0.7891;fill:#9B9B9B;}
	.st102{opacity:0.7969;fill:#9A9A9A;}
	.st103{opacity:0.8047;fill:#999999;}
	.st104{opacity:0.8125;fill:#989898;}
	.st105{opacity:0.8203;fill:#979797;}
	.st106{opacity:0.8281;fill:#969696;}
	.st107{opacity:0.8359;fill:#959595;}
	.st108{opacity:0.8438;fill:#949494;}
	.st109{opacity:0.8516;fill:#939393;}
	.st110{opacity:0.8594;fill:#929292;}
	.st111{opacity:0.8672;fill:#919191;}
	.st112{opacity:0.875;fill:#909090;}
	.st113{opacity:0.8828;fill:#8F8F8F;}
	.st114{opacity:0.8906;fill:#8E8E8E;}
	.st115{opacity:0.8984;fill:#8D8D8D;}
	.st116{opacity:0.9062;fill:#8C8C8C;}
	.st117{opacity:0.9141;fill:#8B8B8B;}
	.st118{opacity:0.9219;fill:#8A8A8A;}
	.st119{opacity:0.9297;fill:#898989;}
	.st120{opacity:0.9375;fill:#888888;}
	.st121{opacity:0.9453;fill:#878787;}
	.st122{opacity:0.9531;fill:#868686;}
	.st123{opacity:0.9609;fill:#858585;}
	.st124{opacity:0.9688;fill:#848484;}
	.st125{opacity:0.9766;fill:#838383;}
	.st126{opacity:0.9844;fill:#828282;}
	.st127{opacity:0.9922;fill:#818181;}
	.st128{fill:#808080;}
	.st129{clip-path:url(#SVGID_2_);fill:#575756;}
	.st130{fill:#33A9AC;}
	.st131{fill:#FFFFFF;}
	.st132{clip-path:url(#SVGID_4_);fill:#575756;}
	.st133{clip-path:url(#SVGID_6_);fill:#575756;}
	.st134{fill:#FFA646;}
	.st135{clip-path:url(#SVGID_8_);fill:#575756;}
	.st136{clip-path:url(#SVGID_10_);fill:#575756;}
	.st137{fill:#F86041;}
	.st138{clip-path:url(#SVGID_12_);fill:#575756;}
	.st139{fill:#982062;}
	.st140{clip-path:url(#SVGID_14_);fill:#575756;}
	.st141{fill:#343779;}
	.st142{clip-path:url(#SVGID_16_);fill:#575756;}
	.st143{fill:#0B75E0;}
	.st144{opacity:0.5;fill:#FFFFFF;}
	.st145{clip-path:url(#SVGID_18_);fill:#FFFFFF;}
	.st146{clip-path:url(#SVGID_20_);fill:#575756;}
	.st147{clip-path:url(#SVGID_22_);fill:#575756;}
	.st148{clip-path:url(#SVGID_24_);fill:#575756;}
	.st149{fill:#9EBB5F;}
	.st150{clip-path:url(#SVGID_26_);fill:#575756;}
	.st151{fill:#D8AB4C;}
	.st152{clip-path:url(#SVGID_28_);fill:#575756;}
	.st153{fill:#93278F;}
</style>
<g>
	<g>
		<path d="M76.79,184.53h2.91c1.86,0,3.37,0.67,3.37,2.73c0,1.99-1.52,2.87-3.32,2.87H78.7v2.88h-1.92V184.53z M79.63,188.61
			c1.05,0,1.55-0.47,1.55-1.35c0-0.89-0.57-1.2-1.6-1.2H78.7v2.56H79.63z"/>
		<path d="M84.08,191.22c0-1.36,1.08-2.09,3.63-2.36c-0.04-0.56-0.32-0.93-1.02-0.93c-0.54,0-1.08,0.23-1.71,0.58l-0.68-1.25
			c0.82-0.5,1.74-0.85,2.75-0.85c1.65,0,2.56,0.94,2.56,2.92v3.69h-1.56l-0.14-0.66h-0.05c-0.54,0.48-1.15,0.82-1.88,0.82
			C84.82,193.16,84.08,192.3,84.08,191.22z M87.71,191.13V190c-1.36,0.18-1.8,0.57-1.8,1.06c0,0.42,0.29,0.62,0.74,0.62
			C87.08,191.68,87.37,191.47,87.71,191.13z"/>
		<path d="M91.22,186.56h1.56l0.14,1.13h0.05c0.47-0.86,1.17-1.28,1.83-1.28c0.37,0,0.58,0.05,0.77,0.13l-0.32,1.65
			c-0.23-0.06-0.42-0.1-0.7-0.1c-0.49,0-1.08,0.31-1.42,1.19v3.74h-1.91V186.56z"/>
		<path d="M96.66,190.66v-2.6h-0.88v-1.43l0.99-0.07l0.22-1.71h1.58v1.71h1.55v1.5h-1.55v2.58c0,0.73,0.33,1.02,0.83,1.02
			c0.21,0,0.44-0.06,0.61-0.12l0.3,1.39c-0.34,0.11-0.81,0.23-1.43,0.23C97.29,193.16,96.66,192.15,96.66,190.66z"/>
		<path d="M101.38,186.56h1.56l0.14,0.82h0.05c0.54-0.52,1.19-0.97,2.07-0.97c1.4,0,2,0.99,2,2.6v4h-1.91v-3.76
			c0-0.93-0.25-1.22-0.8-1.22c-0.48,0-0.77,0.22-1.19,0.63v4.35h-1.91V186.56z"/>
		<path d="M108.44,189.78c0-2.09,1.49-3.38,3.04-3.38c1.84,0,2.75,1.34,2.75,3.1c0,0.34-0.04,0.69-0.08,0.84h-3.86
			c0.17,0.94,0.81,1.36,1.67,1.36c0.49,0,0.93-0.15,1.39-0.42l0.63,1.15c-0.66,0.46-1.52,0.73-2.29,0.73
			C109.86,193.16,108.44,191.92,108.44,189.78z M112.6,189.08c0-0.71-0.31-1.22-1.07-1.22c-0.6,0-1.13,0.41-1.26,1.22H112.6z"/>
		<path d="M115.55,186.56h1.56l0.14,1.13h0.05c0.47-0.86,1.17-1.28,1.83-1.28c0.37,0,0.58,0.05,0.77,0.13l-0.32,1.65
			c-0.23-0.06-0.42-0.1-0.7-0.1c-0.49,0-1.08,0.31-1.42,1.19v3.74h-1.91V186.56z"/>
		<path d="M120.15,192.26l0.86-1.19c0.58,0.44,1.12,0.68,1.66,0.68c0.57,0,0.81-0.22,0.81-0.55c0-0.42-0.64-0.62-1.3-0.88
			c-0.79-0.31-1.71-0.83-1.71-1.9c0-1.2,0.98-2.02,2.46-2.02c0.99,0,1.72,0.4,2.27,0.82l-0.86,1.15c-0.46-0.33-0.91-0.55-1.36-0.55
			c-0.49,0-0.74,0.19-0.74,0.52c0,0.41,0.6,0.57,1.27,0.81c0.82,0.3,1.74,0.76,1.74,1.94c0,1.17-0.92,2.08-2.65,2.08
			C121.78,193.16,120.8,192.79,120.15,192.26z"/>
		<path d="M126.48,183.9h1.91v2.23l-0.09,1.17c0.48-0.44,1.11-0.89,1.99-0.89c1.4,0,2,0.99,2,2.6v4h-1.91v-3.76
			c0-0.93-0.25-1.22-0.8-1.22c-0.48,0-0.77,0.22-1.19,0.63v4.35h-1.91V183.9z"/>
		<path d="M133.75,184.61c0-0.59,0.46-1,1.11-1c0.64,0,1.11,0.41,1.11,1c0,0.58-0.46,1-1.11,1
			C134.22,185.61,133.75,185.19,133.75,184.61z M133.9,186.56h1.91v6.45h-1.91V186.56z"/>
		<path d="M137.49,186.56h1.56l0.14,0.63h0.05c0.51-0.45,1.16-0.79,1.84-0.79c1.56,0,2.52,1.29,2.52,3.28
			c0,2.21-1.32,3.48-2.71,3.48c-0.55,0-1.08-0.24-1.54-0.67l0.06,1.02v1.89h-1.91V186.56z M141.63,189.7c0-1.16-0.36-1.74-1.12-1.74
			c-0.39,0-0.73,0.18-1.11,0.58v2.65c0.35,0.3,0.71,0.41,1.03,0.41C141.1,191.6,141.63,191.04,141.63,189.7z"/>
		<path d="M147.01,186.63l0.96-0.07h2.96v1.5h-3.93V186.63z M147.87,186.22c0-1.36,0.63-2.48,2.37-2.48c0.54,0,1,0.12,1.29,0.23
			l-0.34,1.41c-0.22-0.09-0.46-0.14-0.67-0.14c-0.47,0-0.74,0.26-0.74,0.93v6.84h-1.91V186.22z"/>
		<path d="M151.6,189.78c0-2.14,1.51-3.38,3.14-3.38s3.14,1.24,3.14,3.38c0,2.14-1.51,3.38-3.14,3.38S151.6,191.92,151.6,189.78z
			 M155.92,189.78c0-1.12-0.39-1.84-1.18-1.84c-0.79,0-1.18,0.72-1.18,1.84s0.39,1.84,1.18,1.84
			C155.53,191.62,155.92,190.9,155.92,189.78z"/>
		<path d="M159.19,186.56h1.56l0.14,1.13h0.05c0.47-0.86,1.17-1.28,1.83-1.28c0.37,0,0.58,0.05,0.77,0.13l-0.32,1.65
			c-0.23-0.06-0.42-0.1-0.7-0.1c-0.49,0-1.08,0.31-1.42,1.19v3.74h-1.91V186.56z"/>
		<path d="M167.12,184.53h3.05c1.8,0,3.27,0.62,3.27,2.64c0,1.95-1.47,2.79-3.27,2.79h-1.14v3.05h-1.92V184.53z M170.02,188.44
			c1.01,0,1.55-0.43,1.55-1.26c0-0.84-0.54-1.12-1.55-1.12h-0.98v2.38H170.02z M169.82,189.45l1.33-1.23l2.7,4.78h-2.14
			L169.82,189.45z"/>
		<path d="M174.56,189.78c0-2.09,1.49-3.38,3.04-3.38c1.84,0,2.75,1.34,2.75,3.1c0,0.34-0.04,0.69-0.08,0.84h-3.86
			c0.17,0.94,0.81,1.36,1.67,1.36c0.49,0,0.93-0.15,1.4-0.42l0.63,1.15c-0.66,0.46-1.52,0.73-2.29,0.73
			C175.98,193.16,174.56,191.92,174.56,189.78z M178.71,189.08c0-0.71-0.31-1.22-1.07-1.22c-0.6,0-1.12,0.41-1.26,1.22H178.71z"/>
		<path d="M181.09,192.26l0.86-1.19c0.58,0.44,1.12,0.68,1.66,0.68c0.57,0,0.82-0.22,0.82-0.55c0-0.42-0.64-0.62-1.3-0.88
			c-0.79-0.31-1.71-0.83-1.71-1.9c0-1.2,0.98-2.02,2.46-2.02c0.99,0,1.72,0.4,2.27,0.82l-0.86,1.15c-0.46-0.33-0.91-0.55-1.36-0.55
			c-0.49,0-0.74,0.19-0.74,0.52c0,0.41,0.6,0.57,1.27,0.81c0.82,0.3,1.74,0.76,1.74,1.94c0,1.17-0.92,2.08-2.65,2.08
			C182.72,193.16,181.75,192.79,181.09,192.26z"/>
		<path d="M187.05,189.78c0-2.09,1.49-3.38,3.04-3.38c1.84,0,2.75,1.34,2.75,3.1c0,0.34-0.04,0.69-0.08,0.84h-3.86
			c0.17,0.94,0.81,1.36,1.67,1.36c0.49,0,0.93-0.15,1.4-0.42l0.63,1.15c-0.66,0.46-1.52,0.73-2.29,0.73
			C188.47,193.16,187.05,191.92,187.05,189.78z M191.21,189.08c0-0.71-0.31-1.22-1.07-1.22c-0.6,0-1.12,0.41-1.26,1.22H191.21z"/>
		<path d="M193.86,191.22c0-1.36,1.08-2.09,3.63-2.36c-0.04-0.56-0.32-0.93-1.02-0.93c-0.54,0-1.08,0.23-1.71,0.58l-0.68-1.25
			c0.82-0.5,1.74-0.85,2.75-0.85c1.65,0,2.56,0.94,2.56,2.92v3.69h-1.56l-0.14-0.66h-0.05c-0.54,0.48-1.15,0.82-1.88,0.82
			C194.61,193.16,193.86,192.3,193.86,191.22z M197.49,191.13V190c-1.36,0.18-1.8,0.57-1.8,1.06c0,0.42,0.29,0.62,0.74,0.62
			C196.86,191.68,197.15,191.47,197.49,191.13z"/>
		<path d="M201.01,186.56h1.56l0.14,1.13h0.05c0.47-0.86,1.17-1.28,1.83-1.28c0.37,0,0.58,0.05,0.77,0.13l-0.32,1.65
			c-0.23-0.06-0.42-0.1-0.7-0.1c-0.49,0-1.08,0.31-1.42,1.19v3.74h-1.91V186.56z"/>
		<path d="M205.81,189.78c0-2.14,1.58-3.38,3.36-3.38c0.79,0,1.4,0.28,1.88,0.69l-0.9,1.23c-0.31-0.26-0.57-0.38-0.88-0.38
			c-0.92,0-1.51,0.72-1.51,1.84s0.61,1.84,1.45,1.84c0.42,0,0.83-0.21,1.16-0.48l0.75,1.25c-0.63,0.55-1.43,0.77-2.13,0.77
			C207.2,193.16,205.81,191.92,205.81,189.78z"/>
		<path d="M212.25,183.9h1.91v2.23l-0.09,1.17c0.48-0.44,1.11-0.89,1.99-0.89c1.4,0,2,0.99,2,2.6v4h-1.91v-3.76
			c0-0.93-0.25-1.22-0.8-1.22c-0.48,0-0.77,0.22-1.19,0.63v4.35h-1.91V183.9z"/>
		<path d="M72.6,200.21c0-0.59,0.46-1,1.11-1c0.64,0,1.11,0.41,1.11,1c0,0.58-0.46,1-1.11,1C73.07,201.21,72.6,200.79,72.6,200.21z
			 M72.75,202.15h1.91v6.45h-1.91V202.15z"/>
		<path d="M76.34,202.15h1.56l0.14,0.82h0.05c0.54-0.52,1.19-0.97,2.07-0.97c1.4,0,2,0.99,2,2.6v4h-1.91v-3.76
			c0-0.93-0.25-1.22-0.8-1.22c-0.48,0-0.77,0.22-1.19,0.63v4.35h-1.91V202.15z"/>
		<path d="M86.54,200.13h1.92v8.47h-1.92V200.13z"/>
		<path d="M90.29,202.15h1.56l0.14,0.83h0.05c0.53-0.53,1.11-0.98,1.96-0.98c0.91,0,1.45,0.39,1.78,1.08
			c0.57-0.59,1.17-1.08,2.02-1.08c1.39,0,2.02,0.99,2.02,2.6v4H97.9v-3.76c0-0.93-0.25-1.22-0.8-1.22c-0.32,0-0.69,0.2-1.1,0.63
			v4.35h-1.91v-3.76c0-0.93-0.25-1.22-0.8-1.22c-0.32,0-0.69,0.2-1.1,0.63v4.35h-1.91V202.15z"/>
		<path d="M101.43,202.15h1.56l0.14,0.63h0.05c0.51-0.45,1.16-0.79,1.84-0.79c1.56,0,2.52,1.29,2.52,3.28
			c0,2.21-1.32,3.48-2.71,3.48c-0.56,0-1.08-0.24-1.54-0.67l0.06,1.02V211h-1.91V202.15z M105.57,205.3c0-1.16-0.36-1.74-1.12-1.74
			c-0.39,0-0.73,0.18-1.11,0.58v2.65c0.35,0.3,0.71,0.41,1.03,0.41C105.04,207.2,105.57,206.63,105.57,205.3z"/>
		<path d="M108.88,206.6v-7.1h1.91v7.18c0,0.41,0.19,0.54,0.35,0.54c0.07,0,0.12,0,0.23-0.03l0.23,1.41
			c-0.21,0.09-0.52,0.16-0.96,0.16C109.33,208.76,108.88,207.91,108.88,206.6z"/>
		<path d="M112.22,205.38c0-2.09,1.49-3.38,3.04-3.38c1.84,0,2.75,1.33,2.75,3.1c0,0.34-0.04,0.69-0.08,0.84h-3.86
			c0.17,0.94,0.81,1.37,1.67,1.37c0.49,0,0.93-0.15,1.39-0.42l0.63,1.15c-0.66,0.46-1.52,0.73-2.29,0.73
			C113.65,208.76,112.22,207.52,112.22,205.38z M116.38,204.68c0-0.71-0.31-1.22-1.07-1.22c-0.6,0-1.13,0.41-1.26,1.22H116.38z"/>
		<path d="M119.33,202.15h1.56l0.14,0.83h0.05c0.53-0.53,1.11-0.98,1.95-0.98c0.91,0,1.46,0.39,1.78,1.08
			c0.57-0.59,1.17-1.08,2.03-1.08c1.39,0,2.02,0.99,2.02,2.6v4h-1.91v-3.76c0-0.93-0.25-1.22-0.8-1.22c-0.32,0-0.69,0.2-1.1,0.63
			v4.35h-1.91v-3.76c0-0.93-0.25-1.22-0.8-1.22c-0.32,0-0.69,0.2-1.1,0.63v4.35h-1.91V202.15z"/>
		<path d="M130.1,205.38c0-2.09,1.49-3.38,3.04-3.38c1.84,0,2.75,1.33,2.75,3.1c0,0.34-0.04,0.69-0.08,0.84h-3.86
			c0.17,0.94,0.81,1.37,1.67,1.37c0.49,0,0.93-0.15,1.39-0.42l0.63,1.15c-0.66,0.46-1.52,0.73-2.29,0.73
			C131.52,208.76,130.1,207.52,130.1,205.38z M134.25,204.68c0-0.71-0.31-1.22-1.07-1.22c-0.6,0-1.13,0.41-1.26,1.22H134.25z"/>
		<path d="M137.21,202.15h1.56l0.14,0.82h0.05c0.54-0.52,1.19-0.97,2.07-0.97c1.4,0,2,0.99,2,2.6v4h-1.91v-3.76
			c0-0.93-0.25-1.22-0.8-1.22c-0.48,0-0.77,0.22-1.19,0.63v4.35h-1.91V202.15z"/>
		<path d="M144.9,206.26v-2.61h-0.88v-1.43l0.99-0.07l0.22-1.71h1.58v1.71h1.55v1.5h-1.55v2.58c0,0.73,0.33,1.02,0.83,1.02
			c0.21,0,0.44-0.06,0.61-0.12l0.3,1.39c-0.34,0.11-0.81,0.23-1.43,0.23C145.53,208.76,144.9,207.75,144.9,206.26z"/>
		<path d="M149.32,206.82c0-1.36,1.08-2.09,3.63-2.36c-0.04-0.56-0.32-0.93-1.02-0.93c-0.54,0-1.08,0.23-1.71,0.58l-0.68-1.25
			c0.82-0.5,1.74-0.85,2.75-0.85c1.65,0,2.56,0.94,2.56,2.92v3.69h-1.56l-0.14-0.66h-0.05c-0.54,0.48-1.15,0.82-1.88,0.82
			C150.07,208.76,149.32,207.9,149.32,206.82z M152.96,206.73v-1.13c-1.36,0.18-1.8,0.57-1.8,1.06c0,0.42,0.29,0.62,0.74,0.62
			C152.33,207.28,152.62,207.07,152.96,206.73z"/>
		<path d="M156.73,206.26v-2.61h-0.88v-1.43l0.99-0.07l0.22-1.71h1.58v1.71h1.55v1.5h-1.55v2.58c0,0.73,0.33,1.02,0.83,1.02
			c0.21,0,0.44-0.06,0.61-0.12l0.3,1.39c-0.34,0.11-0.81,0.23-1.43,0.23C157.36,208.76,156.73,207.75,156.73,206.26z"/>
		<path d="M161.3,200.21c0-0.59,0.47-1,1.11-1s1.11,0.41,1.11,1c0,0.58-0.47,1-1.11,1S161.3,200.79,161.3,200.21z M161.45,202.15
			h1.91v6.45h-1.91V202.15z"/>
		<path d="M164.66,205.38c0-2.14,1.51-3.38,3.14-3.38c1.63,0,3.14,1.24,3.14,3.38c0,2.14-1.51,3.38-3.14,3.38
			C166.17,208.76,164.66,207.52,164.66,205.38z M168.99,205.38c0-1.12-0.39-1.84-1.18-1.84c-0.79,0-1.18,0.72-1.18,1.84
			s0.39,1.84,1.18,1.84C168.6,207.22,168.99,206.5,168.99,205.38z"/>
		<path d="M172.25,202.15h1.56l0.14,0.82H174c0.54-0.52,1.19-0.97,2.07-0.97c1.4,0,2,0.99,2,2.6v4h-1.91v-3.76
			c0-0.93-0.25-1.22-0.8-1.22c-0.48,0-0.77,0.22-1.19,0.63v4.35h-1.91V202.15z"/>
		<path d="M181.9,207.54l1.1-1.31c0.6,0.52,1.38,0.89,2.08,0.89c0.8,0,1.19-0.31,1.19-0.82c0-0.53-0.48-0.71-1.22-1.01l-1.1-0.47
			c-0.88-0.36-1.71-1.08-1.71-2.31c0-1.4,1.25-2.53,3.02-2.53c0.98,0,2,0.38,2.73,1.11l-0.97,1.21c-0.56-0.43-1.09-0.66-1.76-0.66
			c-0.66,0-1.08,0.28-1.08,0.76c0,0.52,0.55,0.71,1.29,1l1.08,0.44c1.04,0.42,1.68,1.11,1.68,2.3c0,1.41-1.17,2.63-3.19,2.63
			C183.94,208.76,182.76,208.34,181.9,207.54z"/>
		<path d="M189.14,205.38c0-2.14,1.58-3.38,3.36-3.38c0.79,0,1.4,0.28,1.88,0.69l-0.9,1.23c-0.31-0.26-0.57-0.38-0.88-0.38
			c-0.92,0-1.51,0.72-1.51,1.84s0.62,1.84,1.45,1.84c0.42,0,0.83-0.21,1.16-0.47l0.75,1.25c-0.63,0.55-1.43,0.77-2.13,0.77
			C190.53,208.76,189.14,207.52,189.14,205.38z"/>
		<path d="M195.44,200.21c0-0.59,0.47-1,1.11-1s1.11,0.41,1.11,1c0,0.58-0.47,1-1.11,1S195.44,200.79,195.44,200.21z M195.59,202.15
			h1.91v6.45h-1.91V202.15z"/>
		<path d="M198.8,205.38c0-2.09,1.49-3.38,3.04-3.38c1.84,0,2.75,1.33,2.75,3.1c0,0.34-0.04,0.69-0.08,0.84h-3.86
			c0.17,0.94,0.81,1.37,1.67,1.37c0.49,0,0.93-0.15,1.4-0.42l0.63,1.15c-0.66,0.46-1.52,0.73-2.29,0.73
			C200.23,208.76,198.8,207.52,198.8,205.38z M202.96,204.68c0-0.71-0.31-1.22-1.07-1.22c-0.6,0-1.12,0.41-1.26,1.22H202.96z"/>
		<path d="M205.91,202.15h1.56l0.14,0.82h0.05c0.54-0.52,1.19-0.97,2.07-0.97c1.4,0,2,0.99,2,2.6v4h-1.91v-3.76
			c0-0.93-0.25-1.22-0.8-1.22c-0.48,0-0.77,0.22-1.19,0.63v4.35h-1.91V202.15z"/>
		<path d="M212.97,205.38c0-2.14,1.58-3.38,3.36-3.38c0.79,0,1.4,0.28,1.88,0.69l-0.9,1.23c-0.31-0.26-0.57-0.38-0.88-0.38
			c-0.92,0-1.51,0.72-1.51,1.84s0.61,1.84,1.45,1.84c0.42,0,0.83-0.21,1.16-0.47l0.75,1.25c-0.63,0.55-1.43,0.77-2.13,0.77
			C214.36,208.76,212.97,207.52,212.97,205.38z"/>
		<path d="M219.04,205.38c0-2.09,1.49-3.38,3.04-3.38c1.84,0,2.75,1.33,2.75,3.1c0,0.34-0.04,0.69-0.08,0.84h-3.86
			c0.17,0.94,0.81,1.37,1.67,1.37c0.49,0,0.93-0.15,1.4-0.42l0.63,1.15c-0.66,0.46-1.52,0.73-2.29,0.73
			C220.47,208.76,219.04,207.52,219.04,205.38z M223.2,204.68c0-0.71-0.31-1.22-1.07-1.22c-0.6,0-1.12,0.41-1.26,1.22H223.2z"/>
	</g>
</g>
<g>
	<circle class="st0" cx="123.81" cy="124.14" r="54.34"/>
	<circle class="st1" cx="124.03" cy="123.93" r="54.34"/>
	<circle class="st2" cx="124.24" cy="123.71" r="54.34"/>
	<circle class="st3" cx="124.45" cy="123.5" r="54.34"/>
	<circle class="st4" cx="124.67" cy="123.29" r="54.34"/>
	<circle class="st5" cx="124.88" cy="123.07" r="54.34"/>
	<circle class="st6" cx="125.09" cy="122.86" r="54.34"/>
	<circle class="st7" cx="125.31" cy="122.65" r="54.34"/>
	<circle class="st8" cx="125.52" cy="122.43" r="54.34"/>
	<circle class="st9" cx="125.73" cy="122.22" r="54.34"/>
	<circle class="st10" cx="125.95" cy="122.01" r="54.34"/>
	<circle class="st11" cx="126.16" cy="121.79" r="54.34"/>
	<circle class="st12" cx="126.37" cy="121.58" r="54.34"/>
	<circle class="st13" cx="126.59" cy="121.37" r="54.34"/>
	<circle class="st14" cx="126.8" cy="121.15" r="54.34"/>
	<circle class="st15" cx="127.01" cy="120.94" r="54.34"/>
	<circle class="st16" cx="127.23" cy="120.73" r="54.34"/>
	<circle class="st17" cx="127.44" cy="120.51" r="54.34"/>
	<circle class="st18" cx="127.65" cy="120.3" r="54.34"/>
	<circle class="st19" cx="127.87" cy="120.09" r="54.34"/>
	<circle class="st20" cx="128.08" cy="119.87" r="54.34"/>
	<circle class="st21" cx="128.29" cy="119.66" r="54.34"/>
	<circle class="st22" cx="128.51" cy="119.45" r="54.34"/>
	<circle class="st23" cx="128.72" cy="119.23" r="54.34"/>
	<circle class="st24" cx="128.93" cy="119.02" r="54.34"/>
	<circle class="st25" cx="129.15" cy="118.81" r="54.34"/>
	<circle class="st26" cx="129.36" cy="118.59" r="54.34"/>
	<circle class="st27" cx="129.57" cy="118.38" r="54.34"/>
	<circle class="st28" cx="129.79" cy="118.17" r="54.34"/>
	<circle class="st29" cx="130" cy="117.95" r="54.34"/>
	<circle class="st30" cx="130.21" cy="117.74" r="54.34"/>
	<circle class="st31" cx="130.43" cy="117.53" r="54.34"/>
	<circle class="st32" cx="130.64" cy="117.31" r="54.34"/>
	<circle class="st33" cx="130.85" cy="117.1" r="54.34"/>
	<circle class="st34" cx="131.07" cy="116.89" r="54.34"/>
	<circle class="st35" cx="131.28" cy="116.67" r="54.34"/>
	<circle class="st36" cx="131.49" cy="116.46" r="54.34"/>
	<circle class="st37" cx="131.71" cy="116.25" r="54.34"/>
	<circle class="st38" cx="131.92" cy="116.03" r="54.34"/>
	<circle class="st39" cx="132.13" cy="115.82" r="54.34"/>
	<circle class="st40" cx="132.35" cy="115.61" r="54.34"/>
	<circle class="st41" cx="132.56" cy="115.39" r="54.34"/>
	<circle class="st42" cx="132.77" cy="115.18" r="54.34"/>
	<circle class="st43" cx="132.99" cy="114.97" r="54.34"/>
	<circle class="st44" cx="133.2" cy="114.75" r="54.34"/>
	<circle class="st45" cx="133.41" cy="114.54" r="54.34"/>
	<circle class="st46" cx="133.63" cy="114.33" r="54.34"/>
	<circle class="st47" cx="133.84" cy="114.11" r="54.34"/>
	<circle class="st48" cx="134.05" cy="113.9" r="54.34"/>
	<circle class="st49" cx="134.27" cy="113.69" r="54.34"/>
	<circle class="st50" cx="134.48" cy="113.47" r="54.34"/>
	<circle class="st51" cx="134.69" cy="113.26" r="54.34"/>
	<circle class="st52" cx="134.91" cy="113.05" r="54.34"/>
	<circle class="st53" cx="135.12" cy="112.83" r="54.34"/>
	<circle class="st54" cx="135.33" cy="112.62" r="54.34"/>
	<circle class="st55" cx="135.55" cy="112.41" r="54.34"/>
	<circle class="st56" cx="135.76" cy="112.19" r="54.34"/>
	<circle class="st57" cx="135.97" cy="111.98" r="54.34"/>
	<circle class="st58" cx="136.19" cy="111.77" r="54.34"/>
	<circle class="st59" cx="136.4" cy="111.55" r="54.34"/>
	<circle class="st60" cx="136.61" cy="111.34" r="54.34"/>
	<circle class="st61" cx="136.83" cy="111.13" r="54.34"/>
	<circle class="st62" cx="137.04" cy="110.91" r="54.34"/>
	<circle class="st63" cx="137.25" cy="110.7" r="54.34"/>
	<circle class="st64" cx="137.47" cy="110.49" r="54.34"/>
	<circle class="st65" cx="137.68" cy="110.27" r="54.34"/>
	<circle class="st66" cx="137.89" cy="110.06" r="54.34"/>
	<circle class="st67" cx="138.11" cy="109.85" r="54.34"/>
	<circle class="st68" cx="138.32" cy="109.63" r="54.34"/>
	<circle class="st69" cx="138.54" cy="109.42" r="54.34"/>
	<circle class="st70" cx="138.75" cy="109.21" r="54.34"/>
	<circle class="st71" cx="138.96" cy="108.99" r="54.34"/>
	<circle class="st72" cx="139.18" cy="108.78" r="54.34"/>
	<circle class="st73" cx="139.39" cy="108.57" r="54.34"/>
	<circle class="st74" cx="139.6" cy="108.35" r="54.34"/>
	<circle class="st75" cx="139.82" cy="108.14" r="54.34"/>
	<circle class="st76" cx="140.03" cy="107.93" r="54.34"/>
	<circle class="st77" cx="140.24" cy="107.71" r="54.34"/>
	<circle class="st78" cx="140.46" cy="107.5" r="54.34"/>
	<circle class="st79" cx="140.67" cy="107.29" r="54.34"/>
	<circle class="st80" cx="140.88" cy="107.07" r="54.34"/>
	<circle class="st81" cx="141.1" cy="106.86" r="54.34"/>
	<circle class="st82" cx="141.31" cy="106.65" r="54.34"/>
	<circle class="st83" cx="141.52" cy="106.43" r="54.34"/>
	<circle class="st84" cx="141.74" cy="106.22" r="54.34"/>
	<circle class="st85" cx="141.95" cy="106.01" r="54.34"/>
	<circle class="st86" cx="142.16" cy="105.79" r="54.34"/>
	<circle class="st87" cx="142.38" cy="105.58" r="54.34"/>
	<circle class="st88" cx="142.59" cy="105.37" r="54.34"/>
	<circle class="st89" cx="142.8" cy="105.15" r="54.34"/>
	<circle class="st90" cx="143.02" cy="104.94" r="54.34"/>
	<circle class="st91" cx="143.23" cy="104.73" r="54.34"/>
	<circle class="st92" cx="143.44" cy="104.51" r="54.34"/>
	<circle class="st93" cx="143.66" cy="104.3" r="54.34"/>
	<circle class="st94" cx="143.87" cy="104.09" r="54.34"/>
	<circle class="st95" cx="144.08" cy="103.87" r="54.34"/>
	<circle class="st96" cx="144.3" cy="103.66" r="54.34"/>
	<circle class="st97" cx="144.51" cy="103.45" r="54.34"/>
	<circle class="st98" cx="144.72" cy="103.23" r="54.34"/>
	<circle class="st99" cx="144.94" cy="103.02" r="54.34"/>
	<circle class="st100" cx="145.15" cy="102.81" r="54.34"/>
	<circle class="st101" cx="145.36" cy="102.59" r="54.34"/>
	<circle class="st102" cx="145.58" cy="102.38" r="54.34"/>
	<circle class="st103" cx="145.79" cy="102.17" r="54.34"/>
	<circle class="st104" cx="146" cy="101.95" r="54.34"/>
	<circle class="st105" cx="146.22" cy="101.74" r="54.34"/>
	<circle class="st106" cx="146.43" cy="101.53" r="54.34"/>
	<circle class="st107" cx="146.64" cy="101.31" r="54.34"/>
	<circle class="st108" cx="146.86" cy="101.1" r="54.34"/>
	<circle class="st109" cx="147.07" cy="100.89" r="54.34"/>
	<circle class="st110" cx="147.28" cy="100.67" r="54.34"/>
	<circle class="st111" cx="147.5" cy="100.46" r="54.34"/>
	<circle class="st112" cx="147.71" cy="100.25" r="54.34"/>
	<circle class="st113" cx="147.92" cy="100.03" r="54.34"/>
	<circle class="st114" cx="148.14" cy="99.82" r="54.34"/>
	<circle class="st115" cx="148.35" cy="99.61" r="54.34"/>
	<circle class="st116" cx="148.56" cy="99.39" r="54.34"/>
	<circle class="st117" cx="148.78" cy="99.18" r="54.34"/>
	<circle class="st118" cx="148.99" cy="98.97" r="54.34"/>
	<circle class="st119" cx="149.2" cy="98.75" r="54.34"/>
	<circle class="st120" cx="149.42" cy="98.54" r="54.34"/>
	<circle class="st121" cx="149.63" cy="98.33" r="54.34"/>
	<circle class="st122" cx="149.84" cy="98.11" r="54.34"/>
	<circle class="st123" cx="150.06" cy="97.9" r="54.34"/>
	<circle class="st124" cx="150.27" cy="97.69" r="54.34"/>
	<circle class="st125" cx="150.48" cy="97.47" r="54.34"/>
	<circle class="st126" cx="150.7" cy="97.26" r="54.34"/>
	<circle class="st127" cx="150.91" cy="97.05" r="54.34"/>
	<circle class="st128" cx="151.12" cy="96.83" r="54.34"/>
</g>
<g>
	<g>
		<g>
			<defs>
				<circle id="SVGID_5_" cx="149.95" cy="96.64" r="56.89"/>
			</defs>
			<use xlink:href="#SVGID_5_"  style="overflow:visible;fill:#FFA646;"/>
			<clipPath id="SVGID_2_">
				<use xlink:href="#SVGID_5_"  style="overflow:visible;"/>
			</clipPath>
			<path class="st129" d="M88.87,85.26h75.91c6.26,0,11.38,5.12,11.38,11.38v0c0,6.26-5.12,11.38-11.38,11.38H88.87
				c-6.26,0-11.38-5.12-11.38-11.38v0C77.49,90.38,82.61,85.26,88.87,85.26z"/>
			<path class="st129" d="M62.95,130.77h85.67c6.26,0,11.38,5.12,11.38,11.38v0c0,6.26-5.12,11.38-11.38,11.38H62.95
				c-6.26,0-11.38-5.12-11.38-11.38v0C51.57,135.88,56.69,130.77,62.95,130.77z"/>
			<path class="st129" d="M92.15,108.01h78.77c6.26,0,11.38,5.12,11.38,11.38l0,0c0,6.26-5.12,11.38-11.38,11.38H92.15
				c-6.26,0-11.38-5.12-11.38-11.38l0,0C80.77,113.13,85.89,108.01,92.15,108.01z"/>
			<path class="st129" d="M103.71,39.75h48.31c6.26,0,11.38,5.12,11.38,11.38l0,0c0,6.26-5.12,11.38-11.38,11.38h-48.31
				c-6.26,0-11.38-5.12-11.38-11.38l0,0C92.34,44.87,97.46,39.75,103.71,39.75z"/>
			<path class="st129" d="M96.37,62.5h43.48c6.26,0,11.38,5.12,11.38,11.38l0,0c0,6.26-5.12,11.38-11.38,11.38H96.37
				c-6.26,0-11.38-5.12-11.38-11.38l0,0C84.99,67.62,90.11,62.5,96.37,62.5z"/>
		</g>
		<path class="st134" d="M122.67,108.01h55.48c6.26,0,11.38,5.12,11.38,11.38v0c0,6.26-5.12,11.38-11.38,11.38h-55.48
			c-6.26,0-11.38-5.12-11.38-11.38v0C111.29,113.13,116.41,108.01,122.67,108.01z"/>
		<path class="st134" d="M141.84,62.5h36.31c6.26,0,11.38,5.12,11.38,11.38l0,0c0,6.26-5.12,11.38-11.38,11.38h-36.31
			c-6.26,0-11.38-5.12-11.38-11.38l0,0C130.47,67.62,135.59,62.5,141.84,62.5z"/>
	</g>
</g>
<g>
	<g>
		<path class="st131" d="M116.52,88.57h5.37c3.44,0,6.22,1.23,6.22,5.03c0,3.68-2.81,5.3-6.12,5.3h-1.93v5.31h-3.54V88.57z
			 M121.78,96.1c1.94,0,2.87-0.87,2.87-2.5c0-1.64-1.05-2.22-2.96-2.22h-1.63v4.72H121.78z"/>
		<path class="st131" d="M130.82,88.57h5.63c3.32,0,6.04,1.15,6.04,4.87c0,3.6-2.72,5.14-6.04,5.14h-2.1v5.63h-3.54V88.57z
			 M136.17,95.78c1.86,0,2.86-0.8,2.86-2.33c0-1.55-1-2.06-2.86-2.06h-1.81v4.4H136.17z M135.81,97.65l2.45-2.26l4.99,8.83h-3.96
			L135.81,97.65z"/>
		<path class="st131" d="M145.54,88.57h3.54v15.64h-3.54V88.57z"/>
		<path class="st131" d="M151.75,102.24l2.03-2.43c1.11,0.97,2.56,1.63,3.84,1.63c1.48,0,2.2-0.58,2.2-1.51
			c0-0.99-0.89-1.3-2.26-1.86l-2.03-0.87c-1.62-0.66-3.16-1.99-3.16-4.26c0-2.59,2.32-4.66,5.57-4.66c1.8,0,3.69,0.71,5.03,2.05
			l-1.79,2.23c-1.03-0.79-2.01-1.23-3.25-1.23c-1.22,0-2,0.51-2,1.4c0,0.96,1.02,1.31,2.39,1.85l1.99,0.81
			c1.91,0.77,3.1,2.04,3.1,4.26c0,2.6-2.17,4.85-5.89,4.85C155.51,104.5,153.34,103.73,151.75,102.24z"/>
		<path class="st131" d="M166.1,88.57h3.86l2.54,6.95c0.31,0.92,0.59,1.92,0.9,2.89h0.1c0.31-0.96,0.58-1.96,0.89-2.89l2.46-6.95
			h3.86v15.64h-3.22v-5.74c0-1.52,0.29-3.8,0.45-5.31h-0.1l-1.28,3.7l-2.21,5.99h-1.96l-2.22-5.99l-1.25-3.7h-0.1
			c0.17,1.51,0.45,3.79,0.45,5.31v5.74h-3.17V88.57z"/>
	</g>
</g>
</svg>
